<svg width="109" height="24" viewBox="0 0 109 24" fill="none" xmlns="http://www.w3.org/2000/svg">
<path d="M101.047 10.45H102.406C103.547 10.4059 104.684 10.6206 105.73 11.078C106.869 11.6248 107.769 12.5702 108.258 13.7353C108.636 14.6663 108.82 15.6646 108.798 16.669C108.798 19.2628 107.858 21.1394 105.978 22.2986C105.418 22.6499 104.801 22.8993 104.154 23.0351C103.261 23.1912 102.354 23.2586 101.447 23.2363H95.7532V5.73361H99.2677L99.2887 10.457V20.509H101.894C102.359 20.5439 102.826 20.4696 103.257 20.2919C103.688 20.1142 104.072 19.8381 104.378 19.4856C104.968 18.7095 105.272 17.7536 105.238 16.7793C105.238 14.3862 104.123 13.1895 101.894 13.1895H99.2887L101.047 10.45Z" fill="#030207"/>
<path d="M21.8236 23.2363H18.3423V5.7424H21.8551L21.8236 23.2363Z" fill="#030207"/>
<path d="M33.137 20.509V10.45H36.6498V23.2363H29.71C28.9303 23.2569 28.1509 23.1842 27.3885 23.0194C26.8472 22.871 26.3505 22.5923 25.9418 22.2076C25.0449 21.3913 24.5959 20.0921 24.5947 18.31V10.45H28.1075V18.6721C28.0811 19.1608 28.2418 19.6413 28.5571 20.0157C28.7181 20.1808 28.9125 20.3096 29.1273 20.3935C29.3421 20.4774 29.5724 20.5143 29.8027 20.502L33.137 20.509Z" fill="#030207"/>
<path d="M44.0516 10.45H47.2984V13.1843H44.0516V17.822C44.0516 18.9049 44.1478 19.5924 44.3489 19.8741C44.5389 20.1008 44.7822 20.2769 45.057 20.3865C45.3318 20.4961 45.6295 20.5358 45.9234 20.5021H47.3107V23.2084H44.7548C43.2305 23.2084 42.1476 22.848 41.5062 22.1273C40.8647 21.4065 40.5417 20.1755 40.537 18.4343V13.1774H38.3065V10.4448H40.537H44.0516V10.45Z" fill="#030207"/>
<path d="M54.8331 10.261C57.1948 10.261 58.9384 10.9445 60.0638 12.3113C61.1275 13.6391 61.6787 15.3049 61.6173 17.005C61.6576 17.8955 61.5043 18.784 61.1678 19.6095C60.8313 20.4349 60.3198 21.1775 59.6685 21.7861C58.4765 22.8672 56.8525 23.4084 54.7964 23.4095C52.7391 23.4095 51.0072 22.8025 49.7721 21.5797C48.6607 20.4601 48.1049 18.8489 48.1049 16.7461C48.0558 15.1015 48.6365 13.5002 49.7284 12.2694C50.8946 10.9515 52.5962 10.282 54.8331 10.261ZM54.8611 12.9674C52.7502 12.9674 51.6947 14.2788 51.6947 16.9017C51.6419 17.7451 51.8177 18.587 52.2038 19.3387C52.4772 19.7976 52.8719 20.1723 53.3444 20.4216C53.8168 20.671 54.3489 20.7854 54.8821 20.7522C56.9732 20.7522 58.0165 19.4489 58.0118 16.8423C58.0071 14.2357 56.9575 12.9382 54.8629 12.9499L54.8611 12.9674Z" fill="#030207"/>
<path d="M77.9793 5.73541V23.2293H74.2619V15.9868H67.483V23.2293H63.7655V5.73541H67.483V12.8747H74.2514V5.73541H77.9793Z" fill="#030207"/>
<path d="M89.3294 20.509V10.45H92.8492V23.2363H85.925C85.1453 23.2578 84.3658 23.185 83.6036 23.0194C83.0604 22.8718 82.5618 22.5931 82.1516 22.2076C81.2542 21.3959 80.8098 20.0962 80.8098 18.31V10.45H84.3174V18.6721C84.2909 19.1608 84.4517 19.6413 84.767 20.0157C84.9279 20.1808 85.1223 20.3096 85.3371 20.3935C85.552 20.4774 85.7822 20.5143 86.0125 20.502L89.3294 20.509Z" fill="#030207"/>
<path d="M3.49879 23.2084H0V19.7953C0.00156145 18.6929 0.309438 17.6127 0.889262 16.6752C1.46909 15.7376 2.29805 14.9797 3.28362 14.4859H0V0.590424H5.53159C8.42405 0.593203 11.1972 1.74348 13.2425 3.78875C15.2878 5.83403 16.438 8.60722 16.4408 11.4997V11.5889C16.4408 13.12 15.8326 14.5884 14.75 15.6711C13.6673 16.7537 12.1989 17.3619 10.6678 17.3619H5.93221C5.28689 17.3651 4.66892 17.6229 4.2126 18.0792C3.75629 18.5355 3.49851 19.1535 3.49529 19.7988L3.49879 23.2084ZM3.49879 4.08922V14.3862C4.2645 14.0399 5.09532 13.8609 5.93571 13.8614H10.6713C11.2745 13.8614 11.8529 13.6218 12.2794 13.1953C12.7059 12.7688 12.9455 12.1903 12.9455 11.5871V11.4979C12.9437 9.53312 12.1623 7.64931 10.773 6.25999C9.38368 4.87066 7.4999 4.08932 5.53509 4.08746L3.49879 4.08922Z" fill="#030207"/>
<path d="M40.5369 5.73541V8.98579L44.0514 10.9031V10.45V5.73541H40.5369Z" fill="#06D6A0"/>
</svg>
