<svg width="72" height="12" viewBox="0 0 72 12" fill="none" xmlns="http://www.w3.org/2000/svg">
<path d="M5.38884 0.464302C5.58121 -0.154767 6.41879 -0.154768 6.61116 0.464301L7.58703 3.60481C7.67305 3.88166 7.91979 4.06911 8.19818 4.06911H11.3562C11.9787 4.06911 12.2375 4.90206 11.7339 5.28467L9.17902 7.22561C8.95379 7.39671 8.85955 7.70001 8.94558 7.97686L9.92145 11.1174C10.1138 11.7364 9.43619 12.2512 8.93257 11.8686L6.37772 9.92768C6.15249 9.75658 5.84751 9.75658 5.62228 9.92768L3.06743 11.8686C2.56381 12.2512 1.88619 11.7364 2.07855 11.1174L3.05442 7.97686C3.14045 7.70001 3.0462 7.39671 2.82098 7.22561L0.266125 5.28467C-0.237497 4.90206 0.0213303 4.06911 0.643842 4.06911H3.80181C4.08021 4.06911 4.32694 3.88166 4.41297 3.60481L5.38884 0.464302Z" fill="#FF5C00"/>
<path d="M20.3888 0.464302C20.5812 -0.154767 21.4188 -0.154768 21.6112 0.464301L22.587 3.60481C22.6731 3.88166 22.9198 4.06911 23.1982 4.06911H26.3562C26.9787 4.06911 27.2375 4.90206 26.7339 5.28467L24.179 7.22561C23.9538 7.39671 23.8595 7.70001 23.9456 7.97686L24.9214 11.1174C25.1138 11.7364 24.4362 12.2512 23.9326 11.8686L21.3777 9.92768C21.1525 9.75658 20.8475 9.75658 20.6223 9.92768L18.0674 11.8686C17.5638 12.2512 16.8862 11.7364 17.0786 11.1174L18.0544 7.97686C18.1404 7.70001 18.0462 7.39671 17.821 7.22561L15.2661 5.28467C14.7625 4.90206 15.0213 4.06911 15.6438 4.06911H18.8018C19.0802 4.06911 19.3269 3.88166 19.413 3.60481L20.3888 0.464302Z" fill="#FF5C00"/>
<path d="M35.3888 0.464302C35.5812 -0.154767 36.4188 -0.154768 36.6112 0.464301L37.587 3.60481C37.6731 3.88166 37.9198 4.06911 38.1982 4.06911H41.3562C41.9787 4.06911 42.2375 4.90206 41.7339 5.28467L39.179 7.22561C38.9538 7.39671 38.8595 7.70001 38.9456 7.97686L39.9214 11.1174C40.1138 11.7364 39.4362 12.2512 38.9326 11.8686L36.3777 9.92768C36.1525 9.75658 35.8475 9.75658 35.6223 9.92768L33.0674 11.8686C32.5638 12.2512 31.8862 11.7364 32.0786 11.1174L33.0544 7.97686C33.1404 7.70001 33.0462 7.39671 32.821 7.22561L30.2661 5.28467C29.7625 4.90206 30.0213 4.06911 30.6438 4.06911H33.8018C34.0802 4.06911 34.3269 3.88166 34.413 3.60481L35.3888 0.464302Z" fill="#FF5C00"/>
<path d="M50.3888 0.464302C50.5812 -0.154767 51.4188 -0.154768 51.6112 0.464301L52.587 3.60481C52.6731 3.88166 52.9198 4.06911 53.1982 4.06911H56.3562C56.9787 4.06911 57.2375 4.90206 56.7339 5.28467L54.179 7.22561C53.9538 7.39671 53.8595 7.70001 53.9456 7.97686L54.9214 11.1174C55.1138 11.7364 54.4362 12.2512 53.9326 11.8686L51.3777 9.92768C51.1525 9.75658 50.8475 9.75658 50.6223 9.92768L48.0674 11.8686C47.5638 12.2512 46.8862 11.7364 47.0786 11.1174L48.0544 7.97686C48.1404 7.70001 48.0462 7.39671 47.821 7.22561L45.2661 5.28467C44.7625 4.90206 45.0213 4.06911 45.6438 4.06911H48.8018C49.0802 4.06911 49.3269 3.88166 49.413 3.60481L50.3888 0.464302Z" fill="#FF5C00"/>
<path d="M65.3888 0.464302C65.5812 -0.154767 66.4188 -0.154768 66.6112 0.464301L67.587 3.60481C67.6731 3.88166 67.9198 4.06911 68.1982 4.06911H71.3562C71.9787 4.06911 72.2375 4.90206 71.7339 5.28467L69.179 7.22561C68.9538 7.39671 68.8595 7.70001 68.9456 7.97686L69.9214 11.1174C70.1138 11.7364 69.4362 12.2512 68.9326 11.8686L66.3777 9.92768C66.1525 9.75658 65.8475 9.75658 65.6223 9.92768L63.0674 11.8686C62.5638 12.2512 61.8862 11.7364 62.0786 11.1174L63.0544 7.97686C63.1404 7.70001 63.0462 7.39671 62.821 7.22561L60.2661 5.28467C59.7625 4.90206 60.0213 4.06911 60.6438 4.06911H63.8018C64.0802 4.06911 64.3269 3.88166 64.413 3.60481L65.3888 0.464302Z" fill="#FF5C00"/>
</svg>
