<svg width="141" height="60" viewBox="0 0 141 60" fill="none" xmlns="http://www.w3.org/2000/svg">
<rect x="0.5" width="140" height="60" rx="10" fill="#F7F8FC"/>
<path d="M38.333 20.9572C38.498 20.7922 38.498 20.5142 38.333 20.3492L34.1 16.1272C33.935 15.9622 33.657 15.9622 33.492 16.1272L19.93 29.6932C19.765 29.8582 19.765 30.1362 19.93 30.3012L33.502 43.8732C33.667 44.0382 33.945 44.0382 34.11 43.8732L38.332 39.6512C38.497 39.4862 38.497 39.2082 38.332 39.0432L29.596 30.3072C29.431 30.1422 29.431 29.8642 29.596 29.6992L38.333 20.9572ZM51.753 16.1272C51.588 15.9622 51.31 15.9622 51.145 16.1272L37.592 29.6742C37.427 29.8392 37.427 30.1172 37.592 30.2822L41.814 34.5122C41.979 34.6772 42.257 34.6772 42.422 34.5122L51.145 25.7892C51.31 25.6242 51.588 25.6242 51.753 25.7892L55.659 29.6952C55.824 29.8602 55.824 30.1382 55.659 30.3032L46.923 39.0392C46.758 39.2042 46.758 39.4822 46.923 39.6472L51.145 43.8692C51.31 44.0342 51.588 44.0342 51.753 43.8692L65.32 30.3002C65.485 30.1352 65.485 29.8572 65.32 29.6922L51.753 16.1272Z" fill="#F93535"/>
<path d="M77.74 28.2742V31.8942H81.84V33.5772C81.02 34.2792 79.966 34.6302 78.722 34.6302C77.398 34.6302 76.306 34.2002 75.389 33.3222C74.496 32.4292 74.065 31.3442 74.065 30.0222C74.065 28.6822 74.505 27.5982 75.413 26.7222C76.33 25.8292 77.415 25.3902 78.73 25.3902C80.054 25.3902 81.122 25.7572 81.992 26.5062L84.584 23.9062C82.964 22.4232 80.984 21.6812 78.731 21.6812C76.291 21.6812 74.273 22.4632 72.575 24.0652C70.868 25.6652 70.047 27.6302 70.047 30.0302C70.047 32.4302 70.877 34.3842 72.583 35.9952C74.266 37.5652 76.339 38.3552 78.739 38.3552C81.489 38.3552 84.059 37.1192 85.597 35.0622L85.653 34.9822V28.2822H77.753L77.74 28.2742ZM103.074 21.9002L100.354 30.7522L97.762 21.9002H94.62L92.036 30.7522L89.316 21.9002H85.313L90.209 38.0882H93.549L96.181 29.4682L98.813 38.0882H102.153L107.053 21.9002H103.074ZM108.178 21.9002L107.054 25.6162H111.854V38.0882H116.399V25.6262H121.192V21.9002H108.178Z" fill="#424242"/>
</svg>
