<svg width="140" height="60" viewBox="0 0 140 60" fill="none" xmlns="http://www.w3.org/2000/svg">
<rect width="140" height="60" rx="10" fill="white"/>
<path d="M34.7023 33.3605C33.5673 36.073 30.6625 37.7985 27.7577 37.7985C23.465 37.7985 20.0013 34.2089 20.0013 29.9469C20.0013 25.7148 23.5044 22.1963 27.6769 22.1963C30.6741 22.1963 33.6404 23.9421 34.7947 26.7555H31.6234C31.1409 26.1812 30.5402 25.7179 29.8623 25.397C29.1844 25.0761 28.4452 24.9053 27.6952 24.8962C24.9616 24.8962 22.7744 27.2595 22.7744 30.0479C22.7744 32.693 25.0424 35.0976 27.7154 35.0976C29.1938 35.0976 30.4692 34.4311 31.482 33.3605H34.7023ZM47.2353 26.239H44.7729V27.826C44.3537 27.2168 43.7906 26.7206 43.1335 26.3813C42.4764 26.042 41.7457 25.8702 41.0063 25.8812C39.3664 25.8812 37.9688 26.5044 36.8319 27.826C35.7969 29.0024 35.3891 30.2913 35.3891 31.8437C35.3891 33.3961 35.8969 34.8466 36.7895 35.922C37.7639 37.0819 39.1826 37.8072 40.9236 37.8072C42.3414 37.8072 43.9207 37.0829 44.771 35.922V37.4475H47.2334L47.2353 26.239ZM44.6931 31.8225C44.6931 33.7462 43.3465 35.189 41.4228 35.1698C39.6001 35.189 38.1015 33.7789 38.1015 31.9456C38.1015 29.9902 39.4789 28.4984 41.4632 28.5186C43.3677 28.4993 44.7027 29.9498 44.7027 31.8235M49.2485 37.4465H51.7252V35.921C52.6169 37.2435 53.9952 37.8062 55.5342 37.8062C57.0924 37.8062 58.6535 37.1329 59.649 35.921C60.5435 34.8658 61.111 33.1932 61.0918 31.8427C61.0918 28.6994 58.7352 25.885 55.4553 25.885C54.1799 25.885 52.7429 26.3303 51.9522 27.424V22.4723H49.259L49.2485 37.4465ZM55.1687 28.5186C57.0924 28.5186 58.389 30.0094 58.389 31.8639C58.389 33.7376 57.0712 35.1688 55.1687 35.1688C53.143 35.1688 51.7858 33.6587 51.7858 31.7033C51.7858 29.8498 53.3661 28.5291 55.1687 28.5291M62.6134 22.4723H65.3143V37.4484H62.6134V22.4723ZM78.5417 33.02C78.6023 32.5949 78.6831 32.1698 78.6831 31.7446C78.6831 28.6378 76.1438 25.8773 72.938 25.8773C69.5695 25.8773 66.9793 28.609 66.9793 31.8985C66.9793 35.1688 69.6292 37.7918 72.8966 37.7918C75.2724 37.7918 77.5943 36.1922 78.2791 34.1868H75.3118C74.7828 34.7639 73.8094 35.1486 72.7946 35.1486C71.4346 35.1486 70.2361 34.2974 69.8321 33.0018L78.5417 33.02ZM69.7917 30.6308C70.1976 29.3554 71.5779 28.5186 72.9178 28.5186C74.298 28.5186 75.5359 29.315 75.9822 30.6308H69.7917ZM80.0817 22.4723H81.587V36.0826H87.7774V37.4465H80.0826L80.0817 22.4723ZM98.8243 26.3755H97.3873V28.4916C96.5573 26.9103 94.798 26.137 93.059 26.137C91.522 26.137 89.9647 26.6881 88.2834 28.4916C87.8765 28.8571 87.1243 30.3769 87.1243 31.8581C87.1243 33.5414 87.8169 34.9399 88.2228 35.3862C89.6415 36.9983 91.4412 37.6946 93.0994 37.6946C94.8307 37.6946 96.538 36.9281 97.3893 35.3862V37.459H98.8243V26.3755ZM93.0571 27.5702C95.5252 27.5702 97.3854 29.5372 97.3854 31.9909C97.3854 34.3032 95.404 36.2903 93.0955 36.2903C90.7294 36.2903 88.6248 34.4051 88.6248 31.962C88.6248 29.5093 90.6274 27.5615 93.0552 27.5615M100.556 37.4503H101.979V35.5603C102.851 36.9906 104.796 37.6956 106.396 37.6956C108.017 37.6956 109.394 37.2897 110.934 35.5603C111.545 34.8908 112.257 33.4711 112.257 31.8697C112.257 28.584 109.475 26.1322 106.255 26.1322C104.615 26.1322 102.792 26.9017 102.061 28.4426V22.4723H100.556V37.4503ZM106.294 27.5692C108.766 27.5692 110.75 29.3948 110.75 31.9101C110.75 34.3147 108.806 36.2903 106.395 36.2903C103.964 36.2903 101.958 34.4859 101.958 32.012C101.958 30.7943 102.262 29.7805 103.133 28.9091C103.964 28.0569 105.099 27.5702 106.293 27.5702M114.567 34.1752C114.558 34.4439 114.602 34.7118 114.698 34.963C114.794 35.2141 114.94 35.4435 115.126 35.6375C115.312 35.8315 115.535 35.9861 115.782 36.0923C116.029 36.1985 116.295 36.2541 116.564 36.2557C117.622 36.2557 118.488 35.5084 118.488 34.4282C118.488 33.0951 117.441 32.6007 116.354 32.3063C115.649 32.0851 114.904 31.862 114.355 31.3368C113.766 30.8116 113.461 30.0239 113.461 29.2361C113.461 27.4374 114.925 26.1409 116.656 26.1409C118.307 26.1409 119.708 27.5182 119.708 29.1341H118.215C118.215 28.1646 117.471 27.5788 116.503 27.5788C116.096 27.5788 115.705 27.7406 115.416 28.0286C115.128 28.3165 114.965 28.7072 114.964 29.1149C114.964 30.3268 115.931 30.65 116.888 30.9424C118.539 31.4676 119.983 32.1736 119.983 34.1743C119.983 36.2548 118.458 37.6927 116.405 37.6927C114.53 37.6927 112.945 36.0528 113.045 34.1743H114.549" fill="#ED1D24"/>
</svg>
