<svg width="140" height="60" viewBox="0 0 140 60" fill="none" xmlns="http://www.w3.org/2000/svg">
<rect width="140" height="60" rx="10" fill="white"/>
<path d="M103.464 12.3482C102.764 12.5142 101.984 11.8882 101.689 10.9312C101.394 9.97416 101.715 9.06716 102.391 8.90116C103.091 8.73516 103.871 9.36116 104.179 10.3182C104.473 11.2632 104.153 12.1822 103.464 12.3482ZM102.468 51.1112C101.768 50.9832 101.434 50.0912 101.702 49.1192C101.97 48.1472 102.749 47.4592 103.438 47.5872C104.127 47.7152 104.472 48.6072 104.204 49.5792C103.949 50.5622 103.157 51.2392 102.468 51.1112ZM105.941 19.7532C104.921 20.0082 103.745 19.0762 103.311 17.6592C102.877 16.2552 103.349 14.9142 104.358 14.6592C105.367 14.4042 106.554 15.3362 106.988 16.7532C107.435 18.1572 106.962 19.4982 105.941 19.7532ZM104.741 45.7362C103.783 45.5702 103.324 44.2682 103.707 42.8362C104.09 41.4042 105.187 40.3722 106.147 40.5382C107.107 40.7042 107.564 42.0062 107.181 43.4382C106.798 44.8702 105.701 45.9022 104.741 45.7362Z" fill="#E36F1E"/>
<path d="M107.46 28.805C106.16 28.945 104.945 27.605 104.728 25.805C104.511 24.005 105.392 22.435 106.681 22.281C107.981 22.141 109.196 23.481 109.413 25.281C109.63 27.081 108.749 28.664 107.46 28.805ZM106.643 37.679C105.341 37.679 104.343 36.211 104.383 34.399C104.423 32.587 105.533 31.105 106.833 31.105C108.133 31.105 109.133 32.573 109.093 34.385C109.029 36.198 107.931 37.679 106.643 37.679Z" fill="black"/>
<path d="M111.112 16.038C110.589 16.166 109.988 15.693 109.772 14.965C109.555 14.25 109.785 13.561 110.308 13.433C110.831 13.305 111.432 13.778 111.648 14.506C111.865 15.221 111.635 15.91 111.112 16.038ZM110.359 45.225C109.836 45.125 109.579 44.459 109.784 43.731C109.989 43.003 110.576 42.481 111.099 42.581C111.622 42.681 111.879 43.347 111.674 44.075C111.469 44.803 110.882 45.313 110.359 45.225ZM112.976 21.605C112.21 21.797 111.329 21.105 110.996 20.035C110.663 18.965 111.022 17.967 111.788 17.775C112.554 17.583 113.435 18.275 113.768 19.345C114.101 20.415 113.742 21.413 112.976 21.605ZM112.069 41.165C111.341 41.037 110.996 40.065 111.289 38.969C111.582 37.873 112.389 37.119 113.129 37.245C113.869 37.371 114.202 38.345 113.909 39.428C113.616 40.511 112.809 41.293 112.069 41.165Z" fill="#E36F1E"/>
<path d="M114.112 28.4221C113.142 28.5241 112.212 27.5151 112.056 26.1621C111.9 24.8091 112.554 23.6221 113.524 23.5061C114.494 23.4041 115.426 24.4131 115.58 25.7661C115.746 27.1321 115.095 28.3201 114.112 28.4221ZM113.5 35.1001C112.517 35.1001 111.764 34.0001 111.802 32.6231C111.84 31.2461 112.67 30.1461 113.642 30.1461C114.625 30.1461 115.392 31.2441 115.34 32.6231C115.302 33.9891 114.485 35.1001 113.5 35.1001Z" fill="black"/>
<path d="M116.92 19.7269C116.562 19.8269 116.154 19.4839 116 18.9989C115.846 18.5139 116.013 18.0409 116.37 17.9519C116.727 17.8629 117.136 18.1949 117.29 18.6799C117.43 19.1649 117.277 19.6379 116.92 19.7269ZM116.42 39.6699C116.062 39.6059 115.884 39.1469 116.024 38.6499C116.164 38.1529 116.56 37.7949 116.918 37.8579C117.276 37.9209 117.454 38.3809 117.314 38.8779C117.174 39.3749 116.778 39.7329 116.42 39.6699ZM118.208 23.5299C117.685 23.6579 117.084 23.1849 116.855 22.4569C116.626 21.7289 116.868 21.0399 117.391 20.9119C117.914 20.7839 118.515 21.2699 118.744 21.9849C118.961 22.7129 118.731 23.4019 118.208 23.5299ZM117.582 36.8979C117.084 36.7979 116.854 36.1449 117.046 35.4039C117.25 34.6639 117.812 34.1399 118.296 34.2289C118.794 34.3289 119.024 34.9819 118.832 35.7229C118.64 36.4509 118.079 36.9869 117.582 36.8979Z" fill="#E36F1E"/>
<path d="M118.977 28.1932C118.313 28.2702 117.675 27.5802 117.573 26.6482C117.458 25.7162 117.918 24.9122 118.573 24.8352C119.228 24.7582 119.875 25.4482 119.977 26.3802C120.079 27.3122 119.632 28.1162 118.977 28.1932ZM118.557 32.7512C117.893 32.7512 117.37 31.9982 117.395 31.0662C117.42 30.1342 117.982 29.3682 118.659 29.3682C119.323 29.3682 119.846 30.1212 119.821 31.0532C119.783 31.9982 119.221 32.7512 118.557 32.7512ZM34.634 35.3942L32.194 35.3812L30.381 32.3412H25.211L26.361 30.4642H29.247L27.347 27.3242L22.444 35.3942H20L25.912 25.5642C26.0775 25.295 26.2894 25.0573 26.538 24.8622C26.858 24.6192 27.138 24.4922 27.393 24.4922C27.673 24.4922 27.955 24.6072 28.248 24.8372C28.4962 25.0378 28.7079 25.2797 28.874 25.5522L34.634 35.3942ZM45.334 26.4182H37.826V35.3942H35.926V24.5142H45.323L45.334 26.4182ZM44.849 30.8232H38.649V28.9232H44.854L44.849 30.8232ZM60.149 35.3932H57.349L54.309 32.3292H50.223V30.4522H55.317C56.019 30.4522 56.617 30.2992 57.079 29.9922C57.615 29.6342 57.896 29.1122 57.896 28.4472C57.896 27.0942 57.041 26.4042 55.316 26.4042H49.11V35.3802H47.21V24.5032H55.01C56.414 24.5032 57.538 24.8092 58.406 25.4102C59.389 26.1102 59.886 27.1082 59.886 28.4502C59.886 29.3702 59.606 30.1482 59.031 30.8122C58.495 31.4252 57.781 31.8592 56.861 32.1122L60.149 35.3932ZM64.503 35.3932H62.603V24.5152H64.503V35.3932Z" fill="black"/>
<path d="M78.337 34.4622C78.337 35.1642 78.094 35.5092 77.622 35.5092C77.277 35.5092 76.882 35.2922 76.447 34.8592L69.477 27.8592V35.4052H67.6V25.4602C67.593 25.2224 67.6647 24.989 67.804 24.7962C67.944 24.6042 68.136 24.5162 68.391 24.5162C68.736 24.5162 69.106 24.7082 69.476 25.0782L76.446 32.0622V24.5162H78.346L78.337 34.4622ZM83.482 35.3942H81.582V24.5142H83.482V35.3942ZM97.82 35.3942H91.68C90.097 35.3942 88.794 34.8712 87.76 33.8242C86.726 32.7772 86.202 31.4492 86.202 29.8402C86.202 28.2442 86.702 26.9672 87.734 25.9842C88.754 25.0142 90.071 24.5162 91.679 24.5162H97.819V26.4162H91.665C90.618 26.4162 89.763 26.7482 89.099 27.4162C88.422 28.0802 88.099 28.9482 88.099 29.9962C88.099 31.0442 88.431 31.8962 89.099 32.5242C89.776 33.1742 90.631 33.4942 91.665 33.4942H97.805V35.3962L97.82 35.3942Z" fill="#E36F1E"/>
</svg>
