<svg width="140" height="60" viewBox="0 0 140 60" fill="none" xmlns="http://www.w3.org/2000/svg">
<rect width="140" height="60" rx="10" fill="white"/>
<path d="M64.4155 17.8594L69.2922 21.1848L58.8514 27.8869C59.3808 28.2909 59.9846 28.63 60.5141 29.0294L71.02 22.3645L75.5902 25.4299L65.2051 32.2341C65.6695 32.6986 66.3522 32.954 66.9235 33.3256L77.5687 26.5725V19.197H85.3576V33.8969L92.2639 33.9433V40.8497H77.6152V33.8829L64.527 42.243L51.1276 33.2606C49.8178 37.4081 46.7153 40.5246 41.5692 40.8961C38.318 41.1283 34.7185 40.7243 31.0261 40.8961V19.2388C35.6428 19.5453 40.7146 18.6211 44.3744 19.759C47.6117 20.7622 49.9478 23.3445 50.9696 26.5632L64.4201 17.943L64.4155 17.8594ZM38.4062 26.1173V33.9061C40.264 33.9154 41.6713 34.0223 42.7721 33.177C44.3977 31.9229 44.7321 28.8111 43.2923 27.153C42.3309 26.0476 40.7099 25.8154 38.462 25.9594C38.4016 25.9687 38.4062 26.043 38.4155 26.1173H38.4062ZM94.3354 19.1134H102.124V33.8643H108.98V40.7707H94.2797V19.2667C94.275 19.1923 94.2704 19.118 94.3261 19.1087L94.3354 19.1134Z" fill="#0083CA"/>
</svg>
