<svg width="140" height="60" viewBox="0 0 140 60" fill="none" xmlns="http://www.w3.org/2000/svg">
<rect width="140" height="60" rx="10" fill="white"/>
<path d="M65.9 32.0801C65.9375 32.8023 66.26 33.4801 66.7968 33.9648C67.3335 34.4494 68.0407 34.7013 68.763 34.6651C69.3304 34.6593 69.8903 34.5334 70.4056 34.2958C70.921 34.0581 71.3801 33.714 71.7529 33.2861C71.7989 33.2101 71.8789 33.1601 71.9679 33.1511C72.0569 33.1421 72.1449 33.1771 72.2039 33.2441L73.2369 34.3621C73.2725 34.389 73.3021 34.4231 73.3237 34.4622C73.3453 34.5012 73.3585 34.5443 73.3624 34.5888C73.3664 34.6332 73.361 34.678 73.3466 34.7203C73.3323 34.7625 73.3092 34.8013 73.2789 34.8341C73.0639 35.1871 71.5789 37.0741 68.5219 37.0741C65.4649 37.0741 62.9469 35.0501 62.9469 31.6091C62.9291 30.901 63.0537 30.1966 63.3132 29.5375C63.5728 28.8785 63.9621 28.2783 64.4579 27.7725C64.9538 27.2668 65.5462 26.8657 66.2 26.5932C66.8538 26.3207 67.5557 26.1823 68.264 26.1861C71.621 26.1861 73.299 28.2101 73.299 31.7391C73.299 31.8331 73.2619 31.9221 73.1959 31.9891C73.1632 32.022 73.1242 32.048 73.0813 32.0657C73.0384 32.0834 72.9924 32.0924 72.9459 32.0921H65.894L65.9 32.0801ZM70.5719 30.4231C70.5299 29.4231 69.906 28.4411 68.375 28.4411C67.127 28.4411 66.178 29.0651 65.942 30.4231H70.568H70.5719ZM118.308 32.0431C118.346 32.7659 118.67 33.4438 119.209 33.9278C119.747 34.4118 120.455 34.6622 121.178 34.6241C121.745 34.6183 122.305 34.4924 122.821 34.2548C123.336 34.0171 123.795 33.673 124.168 33.2451C124.214 33.1691 124.294 33.1191 124.383 33.1101C124.472 33.1011 124.56 33.1361 124.619 33.2031L125.652 34.3211C125.688 34.348 125.717 34.3821 125.739 34.4212C125.76 34.4602 125.773 34.5033 125.777 34.5478C125.781 34.5922 125.776 34.637 125.762 34.6793C125.747 34.7215 125.724 34.7603 125.694 34.7931C125.479 35.1461 123.994 37.0331 120.937 37.0331C117.88 37.0331 115.362 35.0091 115.362 31.5681C115.347 30.8621 115.473 30.1602 115.733 29.5037C115.993 28.8472 116.382 28.2495 116.877 27.7458C117.372 27.242 117.963 26.8425 118.614 26.5707C119.266 26.2988 119.966 26.1603 120.672 26.1631C124.029 26.1631 125.707 28.1871 125.707 31.7161C125.707 31.8101 125.67 31.8991 125.604 31.9661C125.571 31.999 125.532 32.025 125.489 32.0427C125.446 32.0604 125.4 32.0694 125.354 32.0691H118.302L118.308 32.0431ZM122.976 30.3931C122.934 29.3931 122.31 28.4111 120.779 28.4111C119.531 28.4111 118.582 29.0351 118.346 30.3931H122.976ZM83.5 36.9151C83.3655 36.9335 83.2286 36.9205 83.1 36.8772C82.9714 36.8339 82.8546 36.7614 82.7586 36.6654C82.6626 36.5695 82.5902 36.4526 82.5469 36.324C82.5036 36.1954 82.4906 36.0585 82.509 35.9241V35.0211H82.446C82.146 35.7541 81.282 37.0661 79.174 37.0661C76.174 37.0661 74.3539 34.8261 74.3539 31.6431C74.3539 28.1561 76.399 26.1431 79.194 26.1431C81.239 26.1431 82.2089 27.2611 82.3669 27.6491H82.409V26.6371C82.4044 26.5966 82.409 26.5556 82.4225 26.5171C82.436 26.4787 82.458 26.4438 82.487 26.4151C82.545 26.3571 82.627 26.3281 82.709 26.3371H84.6449C84.7249 26.3321 84.8049 26.3621 84.8629 26.4191C84.8915 26.4474 84.9135 26.4815 84.9277 26.5192C84.9418 26.5568 84.9477 26.597 84.9449 26.6371V34.6131H85.7489C85.7888 34.6075 85.8293 34.6117 85.8672 34.6251C85.9051 34.6386 85.9392 34.661 85.9666 34.6904C85.9939 34.7199 86.0138 34.7555 86.0245 34.7943C86.0352 34.833 86.0364 34.8738 86.028 34.9131V36.6001C86.038 36.6781 86.0119 36.7571 85.9579 36.8141C85.9039 36.8711 85.8279 36.9141 85.7579 36.8991H83.5V36.9151ZM82.2 31.6651C82.2 29.6411 81.103 28.6081 79.732 28.6081C78.205 28.6081 77.1719 29.8141 77.1719 31.6861C77.1719 33.5581 78.269 34.6861 79.732 34.6861C81.04 34.6861 82.2 33.6741 82.2 31.6711V31.6651ZM62.2729 28.8501C62.6734 28.0062 63.2593 27.2637 63.9869 26.6781C64.0369 26.6231 64.0569 26.5461 64.0369 26.4741C64.0169 26.4021 63.961 26.3461 63.889 26.3241C63.4057 26.2288 62.9145 26.1792 62.422 26.1761C58.914 26.1761 58.074 28.9761 58.074 28.9761H57.9889V26.5761C57.9889 26.4965 57.9573 26.4202 57.9011 26.364C57.8448 26.3077 57.7685 26.2761 57.6889 26.2761H54.4889C54.4094 26.2761 54.3331 26.3077 54.2768 26.364C54.2206 26.4202 54.1889 26.4965 54.1889 26.5761V28.2541C54.1844 28.2946 54.189 28.3356 54.2025 28.374C54.216 28.4125 54.238 28.4474 54.2669 28.4761C54.3249 28.5341 54.4069 28.5631 54.4889 28.5541H55.547V34.6001H54.7669C54.6839 34.5881 54.601 34.6161 54.542 34.6751C54.483 34.7341 54.4549 34.8171 54.4669 34.9001V36.5781C54.4619 36.6581 54.492 36.7381 54.549 36.7961C54.5773 36.8246 54.6114 36.8467 54.649 36.8608C54.6866 36.875 54.7269 36.8809 54.7669 36.8781H59.139C59.2185 36.8781 59.2948 36.8465 59.3511 36.7902C59.4073 36.734 59.4389 36.6577 59.4389 36.5781V34.9001C59.4389 34.8205 59.4073 34.7442 59.3511 34.688C59.2948 34.6317 59.2185 34.6001 59.139 34.6001H58.395V31.9731C58.395 30.5101 60.1579 28.8311 62.0579 29.0111C62.1062 29.0123 62.1536 28.9982 62.1935 28.9709C62.2333 28.9437 62.2636 28.9045 62.2799 28.8591L62.2729 28.8501ZM97.017 34.5771V23.2301C97.029 23.1471 97.001 23.0641 96.942 23.0051C96.883 22.9461 96.7999 22.9181 96.7169 22.9301H93.5439C93.4589 22.9151 93.372 22.9401 93.308 23.0001C93.244 23.0601 93.212 23.1441 93.22 23.2301V24.9081C93.212 24.9941 93.245 25.0781 93.308 25.1381C93.371 25.1981 93.4579 25.2231 93.5439 25.2081H94.2489V26.7581L94.291 27.6381H94.2489C94.0549 27.2381 93.2159 26.1111 91.2789 26.1111C88.2789 26.1111 86.371 28.3511 86.371 31.5131C86.371 35.0211 88.416 37.0131 91.211 37.0131C93.235 37.0131 94.289 35.7011 94.461 35.2711H94.5029V36.3291C94.5029 36.475 94.5609 36.6149 94.664 36.718C94.7672 36.8211 94.9071 36.8791 95.0529 36.8791H96.569C96.809 36.8791 97.0029 36.6851 97.0029 36.4451V34.5951L97.017 34.5771ZM91.767 34.5971C90.219 34.5971 89.207 33.3491 89.207 31.4971C89.207 29.6451 90.304 28.5271 91.767 28.5271C93.079 28.5271 94.235 29.4971 94.235 31.5271C94.235 33.5571 93.167 34.6051 91.767 34.6051V34.5971ZM114.887 34.6051H114.094V29.9331C114.094 27.7151 112.846 26.1461 110.522 26.1461C108.198 26.1461 107.465 27.6301 107.272 27.9091C106.754 26.8341 105.699 26.1461 104.172 26.1461C101.772 26.1461 101.03 27.8031 100.922 27.9961H100.859V26.7501C100.871 26.6864 100.867 26.6207 100.847 26.5591C100.827 26.4974 100.792 26.4417 100.745 26.3969C100.698 26.3522 100.641 26.3198 100.578 26.3027C100.516 26.2856 100.45 26.2844 100.387 26.2991H98.8369C98.7126 26.2994 98.5935 26.3489 98.5056 26.4368C98.4177 26.5246 98.3682 26.6438 98.368 26.7681V36.2381C98.3682 36.4101 98.4367 36.5751 98.5583 36.6967C98.68 36.8184 98.8449 36.8868 99.017 36.8871H101.997C102.077 36.8871 102.153 36.8555 102.209 36.7992C102.265 36.743 102.297 36.6667 102.297 36.5871V34.9051C102.309 34.8221 102.281 34.7391 102.222 34.6801C102.163 34.6211 102.08 34.5931 101.997 34.6051H101.249V30.0401C101.362 29.6278 101.61 29.2653 101.953 29.0098C102.296 28.7544 102.714 28.6208 103.142 28.6301C104.522 28.6301 104.905 29.5331 104.905 30.8481V36.6241C104.904 36.6573 104.91 36.6902 104.923 36.721C104.935 36.7518 104.953 36.7798 104.977 36.8035C105 36.8271 105.028 36.8459 105.058 36.8587C105.089 36.8715 105.122 36.8781 105.155 36.8781H108.547C108.627 36.8831 108.707 36.8531 108.765 36.7961C108.793 36.7678 108.816 36.7336 108.83 36.696C108.844 36.6584 108.85 36.6182 108.847 36.5781V34.9081C108.859 34.8251 108.831 34.7421 108.772 34.6831C108.713 34.6241 108.63 34.5961 108.547 34.6081H107.775V30.2801C107.764 30.142 107.743 30.005 107.712 29.8701C107.842 29.5026 108.085 29.1857 108.406 28.9652C108.727 28.7447 109.11 28.6319 109.5 28.6431C110.857 28.6431 111.263 29.5461 111.263 30.8611V35.8961C111.263 36.0263 111.288 36.1552 111.338 36.2755C111.388 36.3958 111.461 36.5051 111.553 36.5971C111.645 36.6892 111.754 36.7622 111.875 36.8119C111.995 36.8617 112.124 36.8872 112.254 36.8871H114.898C114.978 36.8871 115.054 36.8555 115.11 36.7992C115.166 36.743 115.198 36.6667 115.198 36.5871V34.9051C115.204 34.8637 115.201 34.8213 115.187 34.7816C115.174 34.742 115.151 34.7061 115.121 34.6771C115.061 34.6191 114.975 34.5911 114.891 34.6071L114.887 34.6051ZM45.914 20.6221H38.346C37.08 20.6217 35.8517 21.0521 34.8628 21.8425C33.874 22.6329 33.1835 23.7362 32.905 24.9711C32.6264 23.7362 31.9359 22.6329 30.9471 21.8425C29.9582 21.0521 28.7299 20.6217 27.464 20.6221H19.9C19.2101 20.6221 18.5485 20.8961 18.0608 21.3839C17.573 21.8717 17.299 22.5333 17.299 23.2231V36.5401C17.2992 37.2297 17.5734 37.8911 18.0611 38.3786C18.5489 38.8662 19.2103 39.1401 19.9 39.1401H24.758C30.293 39.1401 31.958 40.4721 32.738 43.2131C32.7463 43.2451 32.7653 43.2734 32.7919 43.2932C32.8184 43.313 32.8509 43.3232 32.884 43.3221H32.9139C32.947 43.3232 32.9795 43.313 33.006 43.2932C33.0326 43.2734 33.0516 43.2451 33.0599 43.2131C33.8559 40.4731 35.51 39.1401 41.04 39.1401H45.8979C46.5878 39.1401 47.2494 38.8661 47.7371 38.3783C48.2249 37.8905 48.499 37.2289 48.499 36.5391V23.2221C48.499 22.535 48.2271 21.8759 47.7428 21.3885C47.2585 20.9012 46.601 20.6263 45.914 20.6221ZM30.4069 34.9941C30.4069 35.0437 30.3872 35.0913 30.3522 35.1263C30.3171 35.1614 30.2695 35.1811 30.2199 35.1811H21.533C21.4834 35.1811 21.4358 35.1614 21.4007 35.1263C21.3657 35.0913 21.346 35.0437 21.346 34.9941V33.7561C21.346 33.7065 21.3657 33.6589 21.4007 33.6239C21.4358 33.5888 21.4834 33.5691 21.533 33.5691H30.2199C30.2695 33.5691 30.3171 33.5888 30.3522 33.6239C30.3872 33.6589 30.4069 33.7065 30.4069 33.7561V34.9941ZM30.4069 31.6961C30.4069 31.7457 30.3872 31.7933 30.3522 31.8283C30.3171 31.8634 30.2695 31.8831 30.2199 31.8831H21.533C21.4834 31.8831 21.4358 31.8634 21.4007 31.8283C21.3657 31.7933 21.346 31.7457 21.346 31.6961V30.4581C21.346 30.4085 21.3657 30.3609 21.4007 30.3259C21.4358 30.2908 21.4834 30.2711 21.533 30.2711H30.2199C30.2695 30.2711 30.3171 30.2908 30.3522 30.3259C30.3872 30.3609 30.4069 30.4085 30.4069 30.4581V31.6961ZM30.4069 28.3981C30.4069 28.4477 30.3872 28.4953 30.3522 28.5303C30.3171 28.5654 30.2695 28.5851 30.2199 28.5851H21.533C21.4834 28.5851 21.4358 28.5654 21.4007 28.5303C21.3657 28.4953 21.346 28.4477 21.346 28.3981V27.1601C21.346 27.1105 21.3657 27.0629 21.4007 27.0279C21.4358 26.9928 21.4834 26.9731 21.533 26.9731H30.2199C30.2695 26.9731 30.3171 26.9928 30.3522 27.0279C30.3872 27.0629 30.4069 27.1105 30.4069 27.1601V28.3981ZM44.451 34.9981C44.451 35.0477 44.4312 35.0953 44.3962 35.1303C44.3611 35.1654 44.3135 35.1851 44.264 35.1851H35.577C35.5274 35.1851 35.4798 35.1654 35.4447 35.1303C35.4097 35.0953 35.3899 35.0477 35.3899 34.9981V33.7501C35.3899 33.7005 35.4097 33.6529 35.4447 33.6179C35.4798 33.5828 35.5274 33.5631 35.577 33.5631H44.264C44.3135 33.5631 44.3611 33.5828 44.3962 33.6179C44.4312 33.6529 44.451 33.7005 44.451 33.7501V34.9981ZM44.451 31.7001C44.451 31.7497 44.4312 31.7973 44.3962 31.8323C44.3611 31.8674 44.3135 31.8871 44.264 31.8871H35.577C35.5274 31.8871 35.4798 31.8674 35.4447 31.8323C35.4097 31.7973 35.3899 31.7497 35.3899 31.7001V30.4621C35.3899 30.4125 35.4097 30.3649 35.4447 30.3299C35.4798 30.2948 35.5274 30.2751 35.577 30.2751H44.264C44.3135 30.2751 44.3611 30.2948 44.3962 30.3299C44.4312 30.3649 44.451 30.4125 44.451 30.4621V31.7001ZM44.451 28.4021C44.451 28.4517 44.4312 28.4993 44.3962 28.5343C44.3611 28.5694 44.3135 28.5891 44.264 28.5891H35.577C35.5274 28.5891 35.4798 28.5694 35.4447 28.5343C35.4097 28.4993 35.3899 28.4517 35.3899 28.4021V27.1601C35.3899 27.1105 35.4097 27.0629 35.4447 27.0279C35.4798 26.9928 35.5274 26.9731 35.577 26.9731H44.264C44.3135 26.9731 44.3611 26.9928 44.3962 27.0279C44.4312 27.0629 44.451 27.1105 44.451 27.1601V28.3981V28.4021Z" fill="#2484C6"/>
</svg>
