<svg width="140" height="60" viewBox="0 0 140 60" fill="none" xmlns="http://www.w3.org/2000/svg">
<rect width="140" height="60" rx="10" fill="white"/>
<path d="M61.44 24.3636C61.2676 24.3636 61.1023 24.4321 60.9804 24.554C60.8585 24.6759 60.79 24.8412 60.79 25.0136V29.4976H54.226V25.0136C54.2279 24.8999 54.1994 24.7877 54.1436 24.6886C54.0877 24.5895 54.0065 24.5071 53.9082 24.4498C53.8099 24.3926 53.6981 24.3626 53.5843 24.3629C53.4706 24.3632 53.359 24.3938 53.261 24.4516C53.1629 24.5087 53.0818 24.5908 53.0259 24.6896C52.97 24.7883 52.9414 24.9001 52.943 25.0136V35.2496C52.9411 35.3633 52.9695 35.4755 53.0254 35.5746C53.0812 35.6737 53.1625 35.7561 53.2608 35.8134C53.3591 35.8706 53.4709 35.9006 53.5846 35.9003C53.6984 35.9 53.81 35.8694 53.908 35.8116C54.006 35.7545 54.0872 35.6724 54.1431 35.5736C54.1989 35.4749 54.2276 35.3631 54.226 35.2496V30.6996H60.8V35.2496C60.7981 35.3633 60.8265 35.4755 60.8824 35.5746C60.9382 35.6737 61.0195 35.7561 61.1178 35.8134C61.2161 35.8706 61.3279 35.9006 61.4416 35.9003C61.5554 35.9 61.667 35.8694 61.765 35.8116C61.863 35.7545 61.9442 35.6724 62.0001 35.5736C62.0559 35.4749 62.0845 35.3631 62.083 35.2496V25.0136C62.083 24.8439 62.0168 24.681 61.8983 24.5595C61.7798 24.4381 61.6186 24.3678 61.449 24.3636H61.44ZM70.376 24.8836C70.3221 24.7158 70.2155 24.5699 70.0721 24.4674C69.9288 24.3649 69.7562 24.3113 69.58 24.3146H69.515C69.109 24.3146 68.865 24.5146 68.703 24.8846L64.089 34.9846C64.0351 35.0901 64.0073 35.2071 64.008 35.3256C64.0075 35.4024 64.0223 35.4786 64.0514 35.5497C64.0806 35.6207 64.1236 35.6853 64.178 35.7396C64.278 35.8396 64.438 35.9096 64.592 35.9096C64.872 35.9126 65.122 35.7356 65.21 35.4696L66.396 32.8216H72.636L73.822 35.4376C73.868 35.5708 73.9531 35.687 74.0662 35.771C74.1793 35.8551 74.3152 35.903 74.456 35.9086C74.62 35.9086 74.776 35.8436 74.893 35.7286C74.9505 35.6714 74.9961 35.6033 75.027 35.5282C75.0579 35.4532 75.0735 35.3727 75.073 35.2916C75.0671 35.1792 75.04 35.0689 74.993 34.9666L70.376 24.8836ZM66.899 31.6436L69.515 25.8276L72.131 31.6436H66.899Z" fill="#4A00D8"/>
<path d="M81.912 24.4458H77.656C77.4864 24.45 77.3251 24.5203 77.2067 24.6417C77.0882 24.7632 77.0219 24.9261 77.022 25.0958V35.2498C77.0201 35.3635 77.0485 35.4757 77.1044 35.5748C77.1603 35.6739 77.2415 35.7563 77.3398 35.8136C77.4381 35.8708 77.5499 35.9008 77.6636 35.9005C77.7774 35.9002 77.889 35.8696 77.987 35.8118C78.0851 35.7547 78.1662 35.6726 78.2221 35.5738C78.278 35.4751 78.3066 35.3633 78.305 35.2498V31.3998H81.571L84.771 35.5598C84.8365 35.6607 84.9253 35.7443 85.0299 35.8036C85.1345 35.863 85.2518 35.8963 85.372 35.9008C85.5402 35.896 85.7004 35.8282 85.8208 35.7107C85.9412 35.5932 86.013 35.4348 86.022 35.2668C86.0142 35.0887 85.9388 34.9202 85.811 34.7958L82.984 31.1558C84.754 30.8158 86.022 29.7258 86.022 27.8578V27.8258C86.0305 27.4128 85.9574 27.0021 85.8069 26.6174C85.6564 26.2327 85.4315 25.8814 85.145 25.5838C84.43 24.8688 83.309 24.4468 81.912 24.4468V24.4458ZM84.712 27.9058C84.712 29.3678 83.494 30.2458 81.788 30.2458H78.295V25.6318H81.795C83.631 25.6318 84.703 26.4768 84.703 27.8738L84.712 27.9058Z" fill="#4A00D8"/>
<path d="M95.008 29.937C95.901 29.537 96.811 28.784 96.811 27.305V27.273C96.821 26.593 96.559 25.937 96.081 25.453C95.431 24.819 94.408 24.446 93.108 24.446H88.9C88.7304 24.4502 88.5691 24.5205 88.4507 24.6419C88.3322 24.7634 88.2659 24.9263 88.266 25.096V35.17C88.2659 35.3397 88.3322 35.5026 88.4507 35.6241C88.5691 35.7455 88.7304 35.8158 88.9 35.82H93.32C95.806 35.82 97.447 34.666 97.447 32.717V32.684C97.447 31.124 96.347 30.344 95.01 29.938L95.008 29.937ZM89.533 25.6H92.993C94.618 25.6 95.511 26.33 95.511 27.452V27.484C95.511 28.816 94.439 29.514 92.895 29.514H89.532L89.533 25.6ZM96.145 32.635C96.145 33.902 95.073 34.665 93.351 34.665H89.533V30.652H93.133C95.115 30.652 96.155 31.367 96.155 32.602L96.145 32.635ZM104.805 24.25C101.345 24.25 98.989 26.996 98.989 30.13V30.162C98.989 33.298 101.312 36.012 104.773 36.012C108.234 36.012 110.59 33.266 110.59 30.13V30.1C110.59 26.964 108.266 24.25 104.805 24.25ZM109.257 30.164C109.257 32.747 107.405 34.827 104.805 34.827C102.205 34.827 100.321 32.715 100.321 30.132V30.1C100.321 27.517 102.173 25.437 104.773 25.437C107.373 25.437 109.257 27.549 109.257 30.132V30.164Z" fill="#4A00D8"/>
<path d="M117.69 24.4458H113.434C113.264 24.45 113.103 24.5203 112.985 24.6417C112.866 24.7632 112.8 24.9261 112.8 25.0958V35.2498C112.798 35.3635 112.826 35.4757 112.882 35.5748C112.938 35.6739 113.019 35.7563 113.118 35.8136C113.216 35.8708 113.328 35.9008 113.442 35.9005C113.555 35.9002 113.667 35.8696 113.765 35.8118C113.863 35.7547 113.944 35.6726 114 35.5738C114.056 35.4751 114.085 35.3633 114.083 35.2498V31.3998H117.349L120.549 35.5598C120.614 35.6607 120.703 35.7443 120.808 35.8036C120.912 35.863 121.03 35.8963 121.15 35.9008C121.318 35.896 121.478 35.8282 121.599 35.7107C121.719 35.5932 121.791 35.4348 121.8 35.2668C121.792 35.0887 121.717 34.9202 121.589 34.7958L118.762 31.1558C120.532 30.8158 121.8 29.7258 121.8 27.8578V27.8258C121.808 27.4128 121.735 27.0021 121.585 26.6174C121.434 26.2327 121.209 25.8814 120.923 25.5838C120.208 24.8688 119.087 24.4468 117.69 24.4468V24.4458ZM120.49 27.9058C120.49 29.3678 119.272 30.2458 117.566 30.2458H114.073V25.6318H117.573C119.409 25.6318 120.481 26.4768 120.481 27.8738L120.49 27.9058Z" fill="#4A00D8"/>
<path d="M26.393 37.6519L26.193 39.7989C27.9706 40.9405 30.0271 41.573 32.139 41.6279L32.017 40.1349L26.393 37.6519ZM26.863 32.3299L31.557 34.3999L31.233 30.4399H31.847V29.1169H31.391V26.4169H31.847V25.6409L29.315 23.1639V22.9999C29.3145 22.9368 29.2891 22.8764 29.2444 22.8319C29.1996 22.7873 29.1391 22.7622 29.076 22.7619C29.0129 22.7622 28.9524 22.7873 28.9076 22.8319C28.8629 22.8764 28.8375 22.9368 28.837 22.9999V23.1739L26.305 25.6509V26.4269H26.761V29.1269H26.305V30.4499H27.029L26.863 32.3299ZM27.495 26.4179H30.659V29.1179H29.909V27.9649C29.909 27.7445 29.8214 27.5332 29.6656 27.3773C29.5098 27.2215 29.2984 27.1339 29.078 27.1339C28.8576 27.1339 28.6462 27.2215 28.4904 27.3773C28.3345 27.5332 28.247 27.7445 28.247 27.9649V29.1179H27.497L27.495 26.4179ZM26.668 34.5449L26.588 35.4369L31.831 37.7369L31.751 36.7749L26.668 34.5449ZM31.9 38.4599L26.53 36.0999L26.45 36.9919L31.967 39.4219L31.9 38.4599ZM31.695 36.0739L31.615 35.1119L26.815 32.9919L26.735 33.8849L31.695 36.0739ZM43.235 24.2239L45.208 23.5899L45.182 23.5349C44.7533 22.6984 44.2435 21.9059 43.66 21.1689L41.81 22.1269C42.357 22.7746 42.8352 23.4774 43.237 24.2239H43.235Z" fill="#4A00D8"/>
<path d="M42.6459 24.362L42.6689 24.405L43.2349 24.223C42.8332 23.4764 42.355 22.7737 41.8079 22.126L41.2729 22.403C41.7963 23.0074 42.2564 23.6638 42.6459 24.362ZM44.6579 29.25L46.7139 29.397C46.6839 28.692 46.6139 27.99 46.4709 27.297L44.3969 27.367C44.533 27.9866 44.6206 28.6158 44.6589 29.249L44.6579 29.25Z" fill="#4A00D8"/>
<path d="M43.803 27.3998C43.9401 27.9984 44.0294 28.607 44.07 29.2198L44.658 29.2618C44.6197 28.6286 44.5321 27.9993 44.396 27.3798L43.803 27.3998ZM32.466 42.2138C32.366 42.2138 32.286 42.2088 32.196 42.2068L32.274 43.1668L26.078 41.1988L26.144 40.4538C24.2885 39.3321 22.7649 37.7369 21.7295 35.832C20.6941 33.927 20.1841 31.7809 20.252 29.6138C20.39 25.2008 22.899 21.2068 26.812 19.1658C30.725 17.1248 35.437 17.3538 39.135 19.7658L40.575 18.2678C35.431 14.7118 28.571 14.9198 23.653 18.7808C21.2568 20.6616 19.5259 23.2603 18.7138 26.1962C17.9016 29.1321 18.051 32.2509 19.14 35.0958C20.2288 37.941 22.1996 40.3632 24.764 42.0078C27.3284 43.6524 30.3519 44.4331 33.392 44.2358C39.634 43.8298 44.88 39.4058 46.337 33.3358L44.391 32.6608C43.787 35.3733 42.2765 37.799 40.1086 39.5376C37.9407 41.2763 35.2449 42.2241 32.466 42.2248V42.2138Z" fill="#4A00D8"/>
<path d="M32.466 41.6358C32.36 41.6358 32.254 41.6308 32.149 41.6278L32.196 42.2078L32.466 42.2148C35.2449 42.2142 37.9407 41.2663 40.1086 39.5277C42.2764 37.789 43.787 35.3634 44.391 32.6508L43.841 32.4508C43.275 35.0478 41.8387 37.3734 39.7701 39.0424C37.7016 40.7114 35.1249 41.6236 32.467 41.6278L32.466 41.6358ZM20.826 29.9958C20.8244 27.9086 21.3846 25.8595 22.4477 24.0633C23.5109 22.2672 25.0378 20.7903 26.8683 19.7875C28.6988 18.7847 30.7654 18.293 32.8514 18.3639C34.9374 18.4349 36.9658 19.0659 38.724 20.1908L39.124 19.7628C37.3071 18.5816 35.2092 17.9039 33.0447 17.799C30.8801 17.6941 28.7265 18.1658 26.804 19.1658C24.8822 20.1688 23.2618 21.6649 22.109 23.5008C20.9562 25.3367 20.3125 27.4461 20.244 29.6128C20.104 34.0248 22.356 38.1678 26.144 40.4528L26.202 39.7988C24.5553 38.7474 23.1997 37.2985 22.2602 35.5855C21.3207 33.8725 20.8274 31.9495 20.826 29.9958ZM26.08 41.1978L32.276 43.1658L32.198 42.2058C30.062 42.1628 27.975 41.5578 26.148 40.4518L26.08 41.1978Z" fill="#4A00D8"/>
<path d="M26.145 40.4529C27.9727 41.5584 30.0593 42.1633 32.195 42.2069L32.148 41.6269C30.0361 41.572 27.9796 40.9394 26.202 39.7979L26.145 40.4529ZM41.808 22.1269L43.658 21.1689L43.411 20.8549C42.6926 19.9934 41.8734 19.2212 40.971 18.5549L40.578 18.2749L39.138 19.7729C40.1385 20.4264 41.0384 21.2225 41.809 22.1359L41.808 22.1269Z" fill="#4A00D8"/>
<path d="M31.968 27.2196L41.808 22.1276C41.0373 21.2142 40.1375 20.4181 39.137 19.7646L38.737 20.1926L31.968 27.2196Z" fill="#4A00D8"/>
<path d="M46.7139 29.397L44.6579 29.249L44.6829 29.995C44.6825 30.8873 44.5846 31.7769 44.3909 32.648L46.337 33.323L46.3599 33.223C46.6085 32.1612 46.7343 31.0744 46.7349 29.984L46.7319 29.871L46.7139 29.385V29.397Z" fill="#4A00D8"/>
<path d="M44.6579 29.2498L31.9579 28.3498L44.3799 32.6498C44.5736 31.7788 44.6715 30.8892 44.6719 29.9968L44.6469 29.2508L44.6579 29.2498ZM44.3959 27.3678L46.4699 27.2978L46.3419 26.6838C46.0853 25.6118 45.7044 24.5735 45.2069 23.5898L43.2339 24.2238C43.765 25.2133 44.1561 26.2708 44.3959 27.3678Z" fill="#4A00D8"/>
<path d="M32.152 27.7847L44.397 27.3677C44.1571 26.2706 43.766 25.2121 43.235 24.2227L42.669 24.4047L32.152 27.7847Z" fill="#4A00D8"/>
</svg>
