<svg width="140" height="60" viewBox="0 0 140 60" fill="none" xmlns="http://www.w3.org/2000/svg">
<rect width="140" height="60" rx="10" fill="#F7F8FC"/>
<path d="M30.1971 35.4449V39.14H18.7789V20.8601H22.7835V35.4449H30.1971ZM31.9657 26.7428H35.8145V39.1392H31.9657V26.7428ZM33.8905 20.585C34.4825 20.5851 35.0502 20.8202 35.4688 21.2387C35.8875 21.6572 36.1228 22.2248 36.1232 22.8167C36.1232 24.0504 35.123 25.0477 33.8901 25.0477C32.6573 25.0477 31.6588 24.05 31.6588 22.8167C31.6591 22.225 31.8943 21.6576 32.3127 21.2392C32.731 20.8207 33.2988 20.5854 33.8905 20.585ZM60.1093 26.7415H64.8216L59.7697 32.4727L64.7163 39.1392H59.8843L55.8003 33.0153H55.7506V39.1392H51.9031V20.8588H55.7506V31.7841L60.1093 26.7415ZM37.9436 26.7488H41.6379V28.4469H41.6888C42.2016 27.4717 43.4591 26.4461 45.3313 26.4461C49.2319 26.4461 49.9502 29.0115 49.9502 32.3462V39.1387H46.1018V33.1121C46.1018 31.6746 46.0755 29.8283 44.0997 29.8283C42.0989 29.8283 41.792 31.3936 41.792 33.0093V39.1354H37.9431V26.7488H37.9436ZM72.9281 31.501C72.9535 30.218 71.9525 29.1406 70.566 29.1406C68.8733 29.1406 67.9491 30.2953 67.8477 31.501H72.9281ZM76.1859 36.9902C74.9548 38.5554 72.9285 39.4542 70.9217 39.4542C67.0737 39.4542 63.9946 36.887 63.9946 32.9104C63.9946 28.9338 67.0737 26.3726 70.9217 26.3726C74.5167 26.3726 76.7718 28.9381 76.7718 32.9104V34.1161H67.843C68.1487 35.5786 69.2537 36.5274 70.7426 36.5274C72 36.5274 72.8461 35.8906 73.488 35.0131L76.1859 36.9902ZM84.7912 29.7426C82.8681 29.7426 81.7142 31.0263 81.7142 32.8977C81.7142 34.7724 82.8689 36.0537 84.7912 36.0537C86.7169 36.0537 87.872 34.7724 87.872 32.8977C87.8716 31.0263 86.7173 29.7426 84.7912 29.7426ZM91.4139 39.1332H87.8725V37.4903H87.8224C87.2301 38.3882 85.7434 39.4406 83.9982 39.4406C80.3022 39.4406 77.8654 36.7733 77.8654 33.0004C77.8654 29.5362 80.0203 26.3548 83.5609 26.3548C85.1529 26.3548 86.6409 26.7908 87.5091 27.9965H87.5592V20.8588H91.4097L91.4139 39.1332Z" fill="black"/>
<path d="M119.3 17.021H97.1787C96.1173 17.021 95.2628 17.859 95.2628 18.8915V41.106C95.2628 42.1398 96.1216 42.9782 97.1787 42.9782H119.3C120.359 42.9782 121.221 42.1393 121.221 41.106V18.8915C121.222 17.859 120.359 17.021 119.3 17.021Z" fill="#0177B5"/>
<path d="M99.1116 26.7526H102.962V39.1405H99.1116V26.7526ZM101.038 20.5947C101.629 20.5953 102.197 20.8306 102.615 21.2491C103.033 21.6675 103.268 22.2348 103.269 22.8265C103.268 23.4183 103.033 23.9858 102.615 24.4045C102.197 24.8231 101.629 25.0586 101.038 25.0591C100.446 25.0591 99.8776 24.8239 99.4588 24.4052C99.0401 23.9865 98.8047 23.4187 98.8046 22.8265C98.805 22.2345 99.0404 21.6668 99.4591 21.2483C99.8779 20.8298 100.446 20.5947 101.038 20.5947ZM105.376 26.7526H109.069V28.4409H109.12C109.629 27.4671 110.89 26.4401 112.762 26.4401C116.661 26.4401 117.381 29.006 117.381 32.3411V39.1358H113.535V33.1074C113.535 31.6708 113.508 29.8228 111.534 29.8228C109.53 29.8228 109.223 31.3876 109.223 33.0034V39.1315H105.377V26.7437L105.376 26.7526Z" fill="white"/>
</svg>
