<svg width="146" height="60" viewBox="0 0 146 60" fill="none" xmlns="http://www.w3.org/2000/svg">
<rect x="0.5" width="145" height="60" rx="10" fill="white"/>
<path d="M36.1958 35.7408V24.2478C36.1958 23.6527 36.337 23.2049 36.6224 22.9044C36.9047 22.6068 37.273 22.4565 37.7211 22.4565C38.1845 22.4565 38.5589 22.6039 38.8474 22.8985C39.1358 23.1931 39.277 23.6439 39.277 24.2478V35.7408C39.277 36.3448 39.1328 36.7956 38.8474 37.0931C38.5619 37.3936 38.1845 37.5409 37.7211 37.5409C37.2791 37.5409 36.9139 37.3907 36.6255 37.0872C36.34 36.7867 36.1958 36.336 36.1958 35.7408Z" fill="#3CA6FE"/>
<path d="M119.898 37.5409C115.568 37.5409 112.047 34.1587 112.047 30.0046C112.047 25.8505 115.571 22.4683 119.898 22.4683C124.228 22.4683 127.748 25.8505 127.748 30.0046C127.748 34.1587 124.228 37.5409 119.898 37.5409ZM119.898 25.5175C117.32 25.5175 115.224 27.5298 115.224 30.0046C115.224 32.4764 117.32 34.4916 119.898 34.4916C122.473 34.4916 124.572 32.4794 124.572 30.0046C124.572 27.5298 122.476 25.5175 119.898 25.5175Z" fill="#3CA6FE"/>
<path d="M84.6543 37.5409C80.324 37.5409 76.804 34.1587 76.804 30.0046C76.804 25.8505 80.3271 22.4683 84.6543 22.4683C88.9845 22.4683 92.5046 25.8505 92.5046 30.0046C92.5046 34.1587 88.9845 37.5409 84.6543 37.5409ZM84.6543 25.5175C82.0794 25.5175 79.9803 27.5298 79.9803 30.0046C79.9803 32.4764 82.0764 34.4916 84.6543 34.4916C87.2322 34.4916 89.3283 32.4794 89.3283 30.0046C89.3283 27.5298 87.2322 25.5175 84.6543 25.5175Z" fill="#3CA6FE"/>
<path d="M109.531 29.9987C109.531 28.3342 108.963 26.7963 108.012 25.5471C106.625 23.7322 104.415 22.5331 101.914 22.4624C101.837 22.4595 101.76 22.4565 101.681 22.4565L97.7402 22.4624C97.0681 22.4624 96.5801 22.6097 96.2794 22.9044C95.9786 23.199 95.8282 23.6733 95.8282 24.3303V29.9899V30.0076V35.6672C95.8282 36.3242 95.9786 36.8015 96.2794 37.0961C96.5801 37.3907 97.0681 37.538 97.7402 37.538L101.681 37.5439C101.76 37.5439 101.837 37.5409 101.914 37.538C104.415 37.4673 106.625 36.2682 108.012 34.4534C108.966 33.2042 109.531 31.6663 109.531 30.0046V29.9987ZM102.236 34.4534C101.856 34.4769 101.447 34.4799 101.009 34.4799H98.9463V30.0076V29.9899V25.5176H101.009C101.447 25.5176 101.856 25.5235 102.236 25.5441C103.599 25.7003 104.783 26.4221 105.526 27.4562C106.042 28.178 106.349 29.0501 106.352 29.9899V29.9987V30.0017V30.0076C106.349 30.9474 106.045 31.8195 105.526 32.5413C104.783 33.5754 103.599 34.2972 102.236 34.4534Z" fill="#3CA6FE"/>
<path d="M72.3571 22.5243C71.7832 22.3534 71.1633 22.5685 70.8288 23.0576L66.0934 29.9811L61.3611 23.0576C61.0266 22.5685 60.4067 22.3534 59.8328 22.5243C59.2589 22.6952 58.8661 23.2137 58.8661 23.803V36.1062C58.8661 36.8427 59.4768 37.4437 60.2287 37.4437C60.9806 37.4437 61.5913 36.8457 61.5913 36.1062V28.1928L64.9518 33.107L64.9579 33.1158L64.961 33.1217L64.9733 33.1394C64.9947 33.1688 65.0162 33.1983 65.0408 33.2278L65.0715 33.2631C65.0899 33.2837 65.1083 33.3073 65.1298 33.325C65.1482 33.3427 65.1666 33.3574 65.1881 33.3751L65.228 33.4104C65.2556 33.4311 65.2832 33.4517 65.3108 33.4694L65.3354 33.487L65.3385 33.49C65.3692 33.5077 65.3998 33.5283 65.4305 33.546L65.4551 33.5607C65.4796 33.5725 65.5042 33.5813 65.5287 33.5931C65.6668 33.655 65.8111 33.6933 65.9553 33.708H65.9584C65.986 33.7109 66.0167 33.7109 66.0443 33.7139L66.0903 33.7168L66.1364 33.7139C66.164 33.7109 66.1947 33.7109 66.2223 33.708H66.2254C66.3696 33.6933 66.5139 33.655 66.652 33.5931C66.6765 33.5813 66.7011 33.5725 66.7256 33.5607L66.7532 33.546C66.7839 33.5283 66.8146 33.5106 66.8453 33.49L66.8484 33.487L66.8699 33.4694C66.8975 33.4517 66.9251 33.4311 66.9527 33.4104L66.9957 33.3721C67.0141 33.3545 67.0325 33.3397 67.0509 33.322C67.0724 33.3044 67.0908 33.2808 67.1092 33.2602L67.143 33.2248C67.1675 33.1954 67.189 33.1659 67.2105 33.1364L67.2228 33.1188L67.2259 33.1129L67.232 33.104L70.5894 28.1898V36.1032C70.5894 36.8398 71.2001 37.4408 71.952 37.4408C72.7039 37.4408 73.3146 36.8427 73.3146 36.1032V23.803C73.3238 23.2137 72.931 22.6952 72.3571 22.5243Z" fill="#3CA6FE"/>
<path d="M54.235 37.2318H44.0554C43.5183 37.2318 42.926 36.9107 42.7051 36.4098C42.4841 35.909 42.4411 35.2284 42.9138 34.6863L51.2428 25.4088H44.3592C43.6073 25.4088 42.9966 24.7842 42.9966 24.0123C42.9966 23.2404 43.6073 22.769 44.3592 22.769H53.6366C54.1737 22.769 54.7261 22.8515 55.211 23.3612C55.6529 23.8267 55.6345 24.8314 55.1373 25.4294L47.0906 34.4388H54.235C54.9869 34.4388 55.5363 35.0634 55.5363 35.8353C55.5332 36.6072 54.9869 37.2318 54.235 37.2318Z" fill="#3CA6FE"/>
<path d="M26.0469 37.5409C23.7882 37.5409 21.7381 36.6807 20.2773 35.1192C18.9884 33.7433 18.2518 31.9314 18.2518 30.1461C18.2518 24.5454 23.1007 22.4565 26.1605 22.4565C29.1649 22.4565 31.3715 23.8707 31.4666 23.9326C32.1449 24.3745 32.3259 25.2642 31.8717 25.9242C31.4206 26.5812 30.5061 26.758 29.8309 26.3219C29.791 26.2984 28.2259 25.3291 26.1635 25.3291C24.2485 25.3291 21.6031 26.5429 21.6031 30.149C21.6031 32.1995 23.1928 34.6183 26.1052 34.6183C27.744 34.6183 28.8979 34.2 29.567 33.7905V31.6574H27.296C26.4796 31.6574 25.8198 31.0152 25.8198 30.2227C25.8198 29.4301 26.4796 28.7879 27.296 28.7879H31.0431C31.8595 28.7879 32.5193 29.4301 32.5193 30.2227V34.4887C32.5193 34.8776 32.3566 35.2488 32.0712 35.5199C31.08 36.4509 28.9072 37.5409 26.0469 37.5409Z" fill="#3CA6FE"/>
</svg>
