<svg width="141" height="60" viewBox="0 0 141 60" fill="none" xmlns="http://www.w3.org/2000/svg">
<rect x="0.5" width="140" height="60" rx="10" fill="white"/>
<path d="M54.4 37.3401V31.3881H49.165V37.3401H46.5V23.2271H49.165V29.0321H54.4V23.2271H57.065V37.3401M66.835 37.3401H64.72L64.528 36.6421C63.6134 37.2369 62.546 37.5537 61.455 37.5541C59.568 37.5541 58.763 36.2611 58.763 34.4811C58.763 32.3831 59.675 31.5791 61.763 31.5791H64.243V30.4971C64.243 29.3541 63.926 28.9511 62.273 28.9511C61.3118 28.9578 60.3537 29.0607 59.413 29.2581L59.096 27.2881C60.249 26.9681 61.439 26.8051 62.636 26.8001C65.876 26.8001 66.831 27.9431 66.831 30.5301L66.835 37.3401ZM64.25 33.4401H62.344C61.496 33.4401 61.264 33.6721 61.264 34.4581C61.264 35.1781 61.496 35.4981 62.304 35.4981C62.9878 35.4873 63.6579 35.304 64.252 34.9651L64.25 33.4401ZM71.838 37.5401C70.6285 37.5186 69.4289 37.3185 68.278 36.9461L68.638 34.9761C69.6376 35.2621 70.6713 35.4117 71.711 35.4211C72.854 35.4211 73.025 35.1541 73.025 34.3811C73.025 33.7471 72.897 33.4271 71.223 33.0241C68.703 32.4081 68.406 31.7741 68.406 29.7841C68.406 27.7081 69.318 26.7961 72.263 26.7961C73.305 26.7971 74.343 26.9181 75.357 27.1561L75.1 29.2201C74.1632 29.0471 73.2143 28.9481 72.262 28.9241C71.14 28.9241 70.948 29.1911 70.948 29.8241C70.948 30.6501 71.012 30.7241 72.411 31.0741C75.311 31.8391 75.577 32.2201 75.577 34.3281C75.577 36.3301 74.961 37.5581 71.847 37.5581L71.838 37.5401ZM83.258 37.3401V30.1441C83.258 29.5921 83.026 29.3181 82.432 29.3181C81.798 29.3181 80.672 29.6981 79.74 30.1881V37.3421H77.155V22.8121L79.74 22.4521V27.8121C80.91 27.2121 82.197 26.8721 83.51 26.8151C85.226 26.8151 85.84 28.0221 85.84 29.8671V37.3471L83.258 37.3401ZM87.758 25.5601V22.5801H90.343V25.5681L87.758 25.5601ZM87.758 37.3401V27.0401H90.343V37.3601L87.758 37.3401ZM92.145 27.1051C92.145 24.5201 93.648 23.0171 97.165 23.0171C98.4574 23.0168 99.7452 23.1733 101 23.4831L100.7 25.8001C99.5571 25.5834 98.398 25.463 97.235 25.4401C95.391 25.4401 94.799 26.0771 94.799 27.5721V32.9961C94.799 34.4991 95.393 35.1281 97.235 35.1281C98.398 35.1052 99.5571 34.9848 100.7 34.7681L100.996 37.0681C99.741 37.3681 98.453 37.5341 97.161 37.5341C93.643 37.5341 92.141 36.0311 92.141 33.4461L92.145 27.1051ZM106.305 37.5501C102.765 37.5501 101.805 35.6021 101.805 33.4831V30.8761C101.805 28.7561 102.759 26.8091 106.305 26.8091C109.851 26.8091 110.805 28.7571 110.805 30.8761V33.4831C110.797 35.6031 109.845 37.5501 106.305 37.5501ZM106.305 29.0201C104.927 29.0201 104.399 29.6361 104.399 30.8001V33.5671C104.399 34.7321 104.932 35.3471 106.305 35.3471C107.678 35.3471 108.211 34.7311 108.211 33.5671V30.8001C108.206 29.6351 107.675 29.0201 106.305 29.0201ZM117.655 29.1801C116.705 29.6101 115.792 30.1131 114.92 30.6831V37.3461H112.335V27.0201H114.518L114.688 28.1631C115.529 27.5931 116.441 27.1368 117.401 26.8061L117.655 29.1801ZM127.458 33.9051C127.458 36.2051 126.44 37.5481 124.046 37.5481C123.12 37.5381 122.196 37.4481 121.29 37.2481V41.5121L118.705 41.8721V27.0201H120.76L121.027 27.8901C121.969 27.1868 123.114 26.8082 124.289 26.8111C126.365 26.8111 127.466 28.0411 127.466 30.3931L127.458 33.9051ZM121.293 35.0701C122.045 35.2354 122.813 35.3248 123.583 35.3371C124.516 35.3371 124.876 34.8921 124.876 33.9591V30.3001C124.876 29.4521 124.559 28.9861 123.606 28.9861C122.75 29.0157 121.932 29.3461 121.296 29.9191L121.293 35.0701ZM25.793 14.4651L13.553 21.5251V38.4821L18.153 41.1371V24.1721L25.793 19.7591M30.666 14.4551V27.9601H25.782V22.9201L21.182 25.5751V42.8781L25.782 45.5381V32.0721H30.666V37.0771L35.266 34.4251V17.1001M30.666 45.5451L42.906 38.4851V21.5251L38.306 18.8701V35.8301L30.666 40.2431" fill="black"/>
</svg>
