<svg width="141" height="60" viewBox="0 0 141 60" fill="none" xmlns="http://www.w3.org/2000/svg">
<rect x="0.5" width="140" height="60" rx="10" fill="white"/>
<path d="M20.4972 20.5519C21.0297 20.7782 21.3824 22.1493 21.3824 22.1493L24.6904 33.6508C25.0698 35.0885 26.2879 35.8472 27.6191 35.8472H34.874C34.3549 35.7541 33.7825 34.2232 33.7825 34.2232L30.1084 22.775C29.5759 21.0245 28.684 20.5386 27.3328 20.5386L20.4972 20.5519ZM51.1811 20.5519C49.8233 20.5519 48.9514 21.0444 48.4255 22.7883L44.7248 34.2365C44.7248 34.2365 44.1591 35.7674 43.6333 35.8606H50.8882C52.246 35.8606 53.4375 35.1018 53.8168 33.6641L57.1249 22.1626C57.1249 22.1626 57.4843 20.7848 58.0301 20.5652L51.1811 20.5519ZM35.2401 20.6318V35.8472H43.3271V20.6318H35.2401Z" fill="#ED1A3A"/>
<path d="M82.93 23.9795L79.7484 24.2857V25.9696H78.4572V27.7268H79.7484V32.9184C79.7484 33.7371 79.9015 34.3495 80.1811 34.7688C80.4606 35.1881 80.8866 35.5276 81.4457 35.7672C82.0048 36.0068 82.8168 36.1399 83.8418 36.1399C84.2811 36.1399 84.8735 36.06 85.6389 35.8737V34.2296C85.3218 34.3015 84.9987 34.3439 84.6738 34.3561C84.1014 34.3561 83.6555 34.2363 83.3559 33.9834C83.0564 33.7304 82.9233 33.2512 82.9233 32.5457V27.7268H85.4326V26.0428H82.9233L82.93 23.9795ZM62.4962 25.7433C61.4284 25.7084 60.3688 25.9418 59.4145 26.4222C58.6166 26.8403 57.9592 27.4838 57.5242 28.2726C57.0849 29.058 56.8586 29.9232 56.8586 30.8418C56.8586 31.8402 57.1116 32.8386 57.6174 33.6173C58.1348 34.4638 58.9124 35.1199 59.8338 35.4876C60.7856 35.887 61.8306 36.1532 63.1618 36.1532C64.5969 36.1454 66.0255 35.9599 67.415 35.6008V33.7504C66.0838 34.1498 64.8857 34.416 63.8407 34.416C63.1734 34.4417 62.5083 34.3237 61.8905 34.0699C61.4305 33.8709 61.0277 33.5597 60.7191 33.1647C60.4329 32.7853 60.2532 32.2528 60.1866 31.5806H67.4616C67.4349 29.3841 66.9823 27.9065 66.0838 27.1011C65.1852 26.2958 63.9872 25.8897 62.4896 25.8897L62.4962 25.7433ZM73.5917 25.7433C71.9543 25.7433 70.7296 26.0229 69.9309 26.5886C69.1322 27.1544 68.7328 27.9198 68.7328 28.7052C68.7328 29.4241 68.9791 29.9898 69.5116 30.4358C70.0441 30.8817 70.8694 31.3143 71.9743 31.6871L73.0392 32.0332C73.585 32.2062 73.9711 32.4059 74.2506 32.5856C74.5302 32.7653 74.65 33.0183 74.65 33.3045C74.65 33.624 74.4703 33.8702 74.1175 34.0832C73.7647 34.2962 73.2855 34.416 72.6998 34.416C71.5882 34.416 70.2504 34.1365 68.6729 33.5973V35.5475C70.1239 35.9069 71.535 36.08 72.9327 36.08C74.5568 36.08 75.7948 35.7605 76.6601 35.1349C77.5253 34.5092 77.9247 33.7904 77.9247 32.9584C77.9247 32.326 77.6917 31.7736 77.2258 31.3143C76.7599 30.8551 75.7615 30.3825 74.244 29.8966L73.3121 29.5905C72.7597 29.4174 72.3803 29.2577 72.1806 29.0779C71.9809 28.8982 71.8478 28.6786 71.8478 28.439C71.8478 28.1395 72.0076 27.9065 72.3404 27.7201C72.6732 27.5338 73.159 27.4339 73.818 27.4339C74.6633 27.4339 75.7216 27.607 76.9995 27.9464V26.0961C75.6683 25.8631 74.5368 25.75 73.5717 25.75L73.5917 25.7433ZM94.1585 25.7433C93.371 25.7238 92.5917 25.9072 91.8955 26.2758C91.2632 26.6352 90.764 27.1411 90.3647 27.8599V25.9696H87.1831V39.4412H90.3647V34.822C90.7906 35.1814 91.1634 35.4543 91.4962 35.6008C91.8164 35.7617 92.1535 35.8867 92.5012 35.9735C92.8868 36.0499 93.2797 36.0834 93.6727 36.0733C95.2435 36.0733 96.4548 35.5409 97.3334 34.5092C98.212 33.4775 98.6513 32.1929 98.6513 30.6487C98.6513 29.1844 98.2653 27.9864 97.4799 27.0945C96.6945 26.2026 95.5896 25.7367 94.1719 25.7367L94.1585 25.7433ZM104.595 25.7433C103.171 25.7433 101.733 25.9763 100.302 26.4422V28.2925C101.633 27.7068 102.811 27.4073 104.029 27.4073C104.642 27.4073 105.161 27.5071 105.547 27.7135C105.933 27.9198 106.212 28.3391 106.212 28.9448V29.8301H105.367C103.237 29.8301 101.706 30.1496 100.775 30.7952C99.8427 31.4408 99.3568 32.2595 99.3568 33.2379C99.3568 34.0366 99.6763 34.7022 100.302 35.248C100.928 35.7938 101.78 36.0667 102.831 36.0667C103.219 36.0665 103.605 36.0241 103.983 35.9402C104.343 35.8654 104.694 35.7492 105.028 35.5941C105.361 35.4277 105.773 35.1681 106.239 34.7954H106.372C106.599 35.3279 106.938 35.6607 107.357 35.8204C107.777 35.9802 108.289 36.0667 108.875 36.0667C109.48 36.061 110.081 35.9782 110.665 35.8204L110.625 34.3228C110.446 34.3428 110.293 34.3428 110.173 34.3428C109.973 34.3428 109.773 34.2762 109.507 34.1564C109.241 34.0366 109.221 33.7304 109.221 33.1913V28.8184C109.221 27.993 109.008 27.3807 108.602 26.968C108.196 26.5553 107.643 26.2359 106.958 26.0362C106.195 25.8258 105.406 25.7227 104.615 25.73L104.595 25.7433ZM117.148 25.7433C115.098 25.7433 113.521 26.2292 112.462 27.181C111.404 28.1328 110.878 29.3775 110.878 30.9083C110.878 32.3726 111.377 33.604 112.376 34.609C113.374 35.6141 114.879 36.0867 116.875 36.0867C118.099 36.0793 119.318 35.9341 120.509 35.654V33.8037C119.583 34.1178 118.612 34.284 117.634 34.2962C117.03 34.3011 116.434 34.1667 115.89 33.9035C115.378 33.6506 114.978 33.2379 114.692 32.6921C114.406 32.1463 114.26 31.534 114.26 30.8817C114.26 30.0497 114.499 29.2843 114.992 28.5787C115.484 27.8732 116.276 27.5537 117.355 27.5537C118.113 27.5537 119.138 27.7268 120.416 28.0862V26.1294C119.178 25.8631 118.087 25.73 117.128 25.73L117.148 25.7433ZM62.403 27.4273C62.9688 27.4273 63.4281 27.6136 63.7808 27.9997C64.1336 28.3857 64.3133 29.018 64.3133 29.9099H60.1666C60.2665 29.0913 60.5128 28.4856 60.8988 28.0596C61.2848 27.6336 61.7907 27.4206 62.3964 27.4206L62.403 27.4273ZM92.9938 27.8599C93.3175 27.8457 93.6397 27.9132 93.9305 28.0563C94.2213 28.1994 94.4714 28.4134 94.6577 28.6786C95.0571 29.2111 95.3233 29.9432 95.3233 30.875C95.338 31.7172 95.1241 32.5476 94.7043 33.2778C94.2917 33.9767 93.6793 34.3228 92.8407 34.3228C92.4413 34.3228 92.042 34.2563 91.6692 34.0965C91.2965 33.9368 90.8705 33.6506 90.4379 33.2313V29.3508C90.8239 28.8849 91.2366 28.5255 91.6892 28.2593C92.1418 27.993 92.621 27.8466 93.067 27.8466L92.9938 27.8599ZM105.4 31.3742H106.133V33.371C105.747 33.6705 105.367 33.8769 104.981 34.0366C104.595 34.1964 104.222 34.2829 103.85 34.2829C103.437 34.2829 103.091 34.1498 102.785 33.9102C102.478 33.6705 102.332 33.3644 102.332 32.9783C102.332 32.5124 102.598 32.133 103.091 31.8268C103.583 31.5207 104.362 31.3742 105.4 31.3742Z" fill="#2D373C"/>
</svg>
