<svg width="141" height="60" viewBox="0 0 141 60" fill="none" xmlns="http://www.w3.org/2000/svg">
<rect x="0.5" width="140" height="60" rx="10" fill="white"/>
<path d="M40.293 21.4438C40.901 22.4478 41.175 23.4808 41.175 24.7868C41.175 28.9518 37.62 34.3618 34.735 38.1608H28.135L25.5 22.3558L31.27 21.8078L32.668 33.0548C33.974 30.9278 35.585 27.5848 35.585 25.3048C35.585 24.0568 35.371 23.2078 35.037 22.5078L40.293 21.4438ZM47.773 28.4038C48.835 28.4038 51.508 27.9178 51.508 26.3988C51.508 25.6688 50.992 25.3048 50.384 25.3048C49.32 25.3048 47.924 26.5808 47.772 28.4048L47.773 28.4038ZM47.651 31.4038C47.651 33.2588 48.683 33.9868 50.051 33.9868C51.551 33.9868 52.966 33.6228 54.821 32.6808L54.123 37.4208C52.817 38.0588 50.783 38.4848 48.806 38.4848C43.806 38.4848 42.001 35.4448 42.001 31.6468C42.001 26.7228 44.918 21.4938 50.933 21.4938C54.233 21.4938 56.096 23.3488 56.096 25.9338C56.096 30.0988 50.75 31.3738 47.651 31.4038ZM72.751 25.1538C72.751 25.7618 72.659 26.6538 72.567 27.2198L70.834 38.1598H65.214L66.794 28.1298L66.916 27.0058C66.916 26.2758 66.46 26.0938 65.912 26.0938C65.184 26.0938 64.454 26.4278 63.968 26.6718L62.176 38.1718H56.526L59.108 21.7888H64.008L64.07 23.0968C65.224 22.3368 66.743 21.5168 68.9 21.5168C71.756 21.5168 72.76 22.9768 72.76 25.1668L72.751 25.1538ZM89.431 23.2978C91.031 22.1438 92.561 21.5048 94.655 21.5048C97.54 21.5048 98.555 22.9648 98.555 25.1548C98.555 25.7628 98.463 26.6548 98.371 27.2208L96.641 38.1608H91L92.6 27.9178L92.692 27.0978C92.692 26.2758 92.236 26.0938 91.688 26.0938C90.99 26.0938 90.292 26.3978 89.774 26.6718L87.974 38.1718H82.354L83.954 27.9288L84.054 27.1088C84.054 26.2868 83.598 26.1048 83.052 26.1048C82.322 26.1048 81.594 26.4388 81.108 26.6828L79.315 38.1828H73.665L76.245 21.7998H81.075L81.227 23.1678C82.351 22.3478 83.869 21.5278 85.904 21.5278C87.666 21.5268 88.82 22.2878 89.398 23.3208L89.431 23.2978ZM109.727 28.0698C109.727 26.7328 109.393 25.8198 108.391 25.8198C106.173 25.8198 105.718 29.7398 105.718 31.7458C105.718 33.2678 106.144 34.2088 107.145 34.2088C109.241 34.2088 109.727 30.0748 109.727 28.0698ZM100.007 31.5048C100.007 26.3378 102.74 21.5048 109.029 21.5048C113.769 21.5048 115.499 24.3018 115.499 28.1628C115.499 33.2698 112.795 38.5578 106.355 38.5578C101.585 38.5578 100.005 35.4278 100.005 31.5058L100.007 31.5048Z" fill="#3D95CE"/>
</svg>
