<svg width="141" height="60" viewBox="0 0 141 60" fill="none" xmlns="http://www.w3.org/2000/svg">
<rect x="0.5" width="140" height="60" rx="10" fill="white"/>
<path d="M27.66 23.2458C26.458 23.2458 26.117 23.7788 26.117 24.9528V26.8928H29.313L28.999 30.0328H26.117V39.5528H22.293V30.0328H19.7V26.8928H22.28V25.0078C22.28 21.8398 23.55 20.1738 27.114 20.1738C27.879 20.1738 28.794 20.2288 29.34 20.3108V23.2608M29.56 33.6128C29.56 37.1498 31.24 39.7988 34.736 39.7988C36.648 39.7988 37.85 38.8428 38.382 37.6288V39.5408H42.056V26.8908H38.382V28.8308C37.822 27.6158 36.662 26.6188 34.736 26.6188C31.236 26.6188 29.56 29.2818 29.56 32.8048M33.398 32.7498C33.398 30.8648 34.094 29.6098 35.87 29.6098C37.44 29.6098 38.233 30.7568 38.233 32.5598V33.8298C38.233 35.6328 37.441 36.7798 35.87 36.7798C34.095 36.7798 33.398 35.5368 33.398 33.6398V32.7498ZM50.032 26.6178C45.55 26.6198 43.5 29.0358 43.5 32.9148V33.5018C43.5 37.3798 45.548 39.7978 50.042 39.7978C51.542 39.7978 52.937 39.4838 53.716 38.9508L52.869 36.2328C52.07 36.6106 51.1987 36.8109 50.315 36.8198C48.239 36.8198 47.338 35.6178 47.338 33.5828V32.8458C47.338 30.7978 48.238 29.6088 50.315 29.6088C51.315 29.6088 52.282 29.8958 52.869 30.1958L53.716 27.4778C52.938 26.9318 51.531 26.6178 50.042 26.6178M54.207 33.6918C54.207 37.4068 56.01 39.8238 60.844 39.8238C62.674 39.8238 64.75 39.4278 65.76 38.8938L65.064 36.2578C63.944 36.7358 62.428 37.0228 60.994 37.0228C58.864 37.0228 58.099 36.2578 58.017 34.5228H66.074V32.5028C66.074 29.0028 64.354 26.6028 60.42 26.6028C56.24 26.6028 54.206 28.9658 54.206 32.5568V33.6998M58.03 32.0478C58.03 30.3408 58.7 29.2618 60.43 29.2618C62.11 29.2618 62.656 30.3548 62.656 31.7338V32.0478H58.03ZM80.277 32.8128C80.277 29.2758 78.57 26.6268 75.074 26.6268C73.299 26.6268 72.07 27.5268 71.51 28.6468V20.1938L67.686 20.5338V39.5338H71.306V37.6218C71.839 38.8368 73.163 39.8068 75.076 39.8068C78.576 39.8068 80.279 37.1438 80.279 33.6208M76.455 33.6758C76.455 35.4508 75.759 36.7898 73.929 36.7898C72.359 36.7898 71.512 35.6698 71.512 33.8668V32.5418C71.512 30.7388 72.359 29.6188 73.929 29.6188C75.759 29.6188 76.455 30.9438 76.455 32.7328V33.6758ZM81.563 33.5258C81.563 37.1718 83.639 39.7938 87.859 39.7938C92.079 39.7938 94.155 37.1578 94.155 33.5258V32.8838C94.155 29.2378 92.079 26.6158 87.859 26.6158C83.639 26.6158 81.563 29.2518 81.563 32.8838V33.5258ZM90.331 33.7858C90.331 35.4658 89.635 36.7898 87.859 36.7898C86.083 36.7898 85.387 35.4648 85.387 33.7858V32.6118C85.387 30.9318 86.083 29.6078 87.859 29.6078C89.635 29.6078 90.331 30.9328 90.331 32.6118V33.7858ZM95.425 33.5258C95.425 37.1718 97.501 39.7938 101.721 39.7938C105.941 39.7938 108.017 37.1578 108.017 33.5258V32.8838C108.017 29.2378 105.941 26.6158 101.721 26.6158C97.501 26.6158 95.425 29.2518 95.425 32.8838V33.5258ZM104.205 33.7858C104.205 35.4658 103.509 36.7898 101.733 36.7898C99.957 36.7898 99.26 35.4898 99.26 33.7898V32.6158C99.26 30.9358 99.956 29.6118 101.732 29.6118C103.508 29.6118 104.204 30.9368 104.204 32.6158L104.205 33.7858ZM113.287 20.1838L109.463 20.5238V39.4998H113.287V33.3138L117.22 39.4998H121.29L117.166 33.0998L121.126 26.8598H117.056L113.286 32.8958" fill="#3C5A99"/>
</svg>
