<svg width="141" height="60" viewBox="0 0 141 60" fill="none" xmlns="http://www.w3.org/2000/svg">
<rect x="0.5" width="140" height="60" rx="10" fill="white"/>
<g clip-path="url(#clip0_28_286)">
<path fill-rule="evenodd" clip-rule="evenodd" d="M28.322 24.4191C29.239 24.4191 30.199 24.5971 31.032 24.9031C31.8483 25.1974 32.6028 25.641 33.257 26.2111C33.8933 26.7287 34.4021 27.3856 34.744 28.1311C35.092 28.8701 35.313 29.6601 35.313 30.4921C35.313 31.3241 35.134 32.1061 34.743 32.8541C34.3747 33.5831 33.8703 34.2348 33.257 34.7741C31.8614 35.9407 30.0979 36.5755 28.279 36.5661H23.871C23.387 36.5661 22.953 36.5231 22.521 36.3871C22.1802 36.3102 21.8731 36.1258 21.645 35.8611C21.4198 35.6258 21.2539 35.3403 21.161 35.0281C21.0595 34.6712 20.9998 34.3038 20.983 33.9331V27.1201C20.9693 26.4195 21.2038 25.7366 21.645 25.1921C21.909 24.9711 22.215 24.8021 22.52 24.6651C22.9598 24.5445 23.414 24.4846 23.87 24.4871L28.322 24.4021V24.4191ZM23.998 26.2111C23.913 26.2111 23.82 26.2111 23.735 26.2541C23.607 26.2961 23.514 26.3391 23.429 26.3811C23.344 26.4661 23.251 26.5591 23.209 26.6441C23.123 26.7721 23.123 26.9081 23.123 27.0351V33.8481C23.123 33.9751 23.166 34.1111 23.208 34.2381C23.2702 34.3483 23.3611 34.4395 23.471 34.5021C23.51 34.5439 23.5574 34.5769 23.6102 34.5988C23.663 34.6207 23.7199 34.631 23.777 34.6291C23.862 34.6721 23.956 34.6721 24.041 34.6721H28.279C29.5797 34.7091 30.8498 34.2744 31.855 33.4481C32.289 33.0581 32.688 32.6161 32.951 32.1401C33.2085 31.6259 33.3425 31.0587 33.3425 30.4836C33.3425 29.9085 33.2085 29.3414 32.951 28.8271C32.6769 28.3101 32.3046 27.8516 31.855 27.4771C30.8523 26.6363 29.5793 26.1866 28.271 26.2111H23.99H23.998ZM49.065 24.4191H51.163V33.6781C51.163 34.0681 51.078 34.4171 50.943 34.7731C50.8081 35.1308 50.5824 35.4472 50.288 35.6911C50.015 35.9607 49.6878 36.169 49.328 36.3021C48.938 36.4301 48.538 36.5231 48.148 36.5231C47.969 36.5231 47.757 36.5231 47.578 36.4811L47.052 36.3531C46.7424 36.2678 46.4474 36.1363 46.177 35.9631C45.957 35.7841 45.744 35.6141 45.565 35.3931C45.2613 34.9894 44.9834 34.5669 44.733 34.1281C44.69 34.0431 40.63 26.5761 40.494 26.4411C40.452 26.3561 40.367 26.3131 40.274 26.2621C40.188 26.2201 40.095 26.2201 40.01 26.2201C39.704 26.2201 39.44 26.3051 39.22 26.4831C39.042 26.7031 38.914 26.9161 38.957 27.1801V36.4381H36.859V27.1801C36.816 26.4401 37.122 25.7351 37.691 25.1751C37.9728 24.896 38.3159 24.6864 38.693 24.5631C39.4695 24.2942 40.3115 24.2795 41.097 24.5211C41.488 24.6481 41.837 24.8271 42.1 25.1321C42.32 25.3531 42.49 25.5661 42.669 25.7861C42.796 25.9651 46.814 33.2531 46.857 33.2961C46.941 33.4741 47.537 34.4931 47.817 34.6461C47.901 34.6971 48.037 34.7311 48.122 34.7311C48.301 34.7311 48.428 34.6891 48.606 34.6461C48.7255 34.6008 48.831 34.525 48.912 34.4261C49.091 34.2041 49.218 33.9921 49.175 33.7291L49.048 24.4271L49.065 24.4191ZM63.345 34.6801H53.61V36.4721H61.773C62.299 35.9461 62.818 35.3341 63.345 34.6801ZM53.778 30.4071C54.127 30.7131 54.518 30.9771 55.002 31.1471C55.486 31.3251 55.962 31.4101 56.488 31.4101H63.258C63.6247 31.3977 63.9861 31.5009 64.291 31.7051C64.5959 31.9094 64.8289 32.2043 64.957 32.5481C65.347 31.9361 65.747 31.3681 66.095 30.7981L65.917 30.6201C65.57 30.3063 65.1706 30.0559 64.737 29.8801C64.2613 29.7033 63.7575 29.6142 63.25 29.6171H56.522C56.2866 29.6232 56.0525 29.5802 55.8346 29.4911C55.6167 29.4019 55.4196 29.2684 55.256 29.0991C55.0949 28.9491 54.9627 28.7708 54.866 28.5731C54.7835 28.3795 54.74 28.1716 54.738 27.9611C54.738 27.7411 54.781 27.5281 54.866 27.3071C54.951 27.1291 55.086 26.9171 55.256 26.7801C55.562 26.4741 56.046 26.2541 56.48 26.2541H66.002V24.4601H56.437C55.911 24.4601 55.435 24.5451 54.951 24.7241C54.5062 24.9036 54.093 25.1531 53.727 25.4631C53.3659 25.7735 53.0812 26.1629 52.895 26.6011C52.6891 27.0211 52.5844 27.4834 52.589 27.9511C52.589 28.4361 52.674 28.8691 52.895 29.3021C53.115 29.6921 53.379 30.0921 53.77 30.3981L53.778 30.4071ZM73.383 36.5151V27.9531C73.383 27.4681 73.468 27.0351 73.689 26.6021C74.1021 25.7314 74.8403 25.0574 75.745 24.7251C76.2143 24.5269 76.7221 24.4367 77.231 24.4611H85.964V26.2961H77.36C77.096 26.2961 76.876 26.3391 76.62 26.4241C76.273 26.5511 76.01 26.7721 75.788 27.0781C75.568 27.3411 75.483 27.6891 75.483 28.0381V29.3461H85.965V31.1381H75.483V36.6001H73.384L73.383 36.5151ZM87.4 26.2961H89.498V24.4201H87.4V26.2961ZM87.4 36.5151H89.498V27.8681H87.4V36.5151ZM95.172 36.5151C94.6648 36.5179 94.1614 36.4288 93.686 36.2521C92.7962 35.9176 92.0631 35.2633 91.63 34.4171C91.4245 33.997 91.32 33.5347 91.325 33.0671V24.5041H93.423V33.0661C93.423 33.2871 93.465 33.4991 93.55 33.7201C93.635 33.9411 93.77 34.1101 93.94 34.2471C94.29 34.5531 94.73 34.7731 95.206 34.7731H95.597V36.5661H95.164M101.424 36.5151C100.917 36.5179 100.413 36.4288 99.938 36.2521C99.4935 36.0722 99.0806 35.8224 98.715 35.5121C98.365 35.2065 98.0828 34.8309 97.8867 34.4096C97.6905 33.9884 97.5847 33.5307 97.576 33.0661V29.7451H96.659V27.9531H97.576V25.3791H99.675V27.9101H102.555V29.7021H99.675V32.9821C99.675 33.2021 99.717 33.4141 99.802 33.6351C99.887 33.8561 100.022 34.0261 100.192 34.1621C100.371 34.3401 100.541 34.4681 100.762 34.5521C100.982 34.6381 101.195 34.6801 101.458 34.7311H102.945V36.5231H101.415L101.424 36.5151ZM106.309 33.2021C106.351 33.3801 106.394 33.5501 106.487 33.7291C106.572 33.9071 106.707 34.0341 106.835 34.1621C107.014 34.3401 107.226 34.4681 107.447 34.5521C107.667 34.6381 107.931 34.6801 108.186 34.6801H115.831V36.4721H108.058C107.551 36.4749 107.047 36.3858 106.572 36.2091C106.128 36.0295 105.715 35.78 105.349 35.4701C104.988 35.1598 104.703 34.7704 104.516 34.3321C104.31 33.9121 104.205 33.4498 104.21 32.9821V31.3671C104.21 30.8831 104.295 30.4501 104.516 30.0171C104.938 29.1622 105.675 28.5044 106.572 28.1821C107.048 28.0095 107.551 27.9206 108.058 27.9191H113.121C113.861 27.9191 114.608 28.1391 115.261 28.4881C115.881 28.8647 116.382 29.4094 116.706 30.0591C116.926 30.4921 117.012 30.9771 117.012 31.4091V33.2451H106.317V33.2021H106.309ZM106.835 30.1871C106.676 30.3386 106.544 30.5165 106.445 30.7131C106.36 30.9341 106.266 31.1461 106.266 31.3671H114.871C114.871 31.1471 114.829 30.9341 114.693 30.7131C114.608 30.4931 114.472 30.3231 114.302 30.1871C114.128 30.0154 113.919 29.8822 113.69 29.7961C113.453 29.7095 113.203 29.6661 112.951 29.6681H108.151C107.889 29.6681 107.668 29.7111 107.413 29.7961C107.234 29.8811 107.023 30.0161 106.843 30.1861L106.835 30.1871ZM125.829 27.8671V29.6601H122.465C122.105 29.6481 121.749 29.7403 121.44 29.9257C121.131 30.1111 120.883 30.3818 120.724 30.7051C120.639 30.9251 120.545 31.1381 120.545 31.3591V36.4641H118.447V31.3591C118.447 30.8751 118.532 30.4411 118.753 30.0091C118.957 29.5702 119.248 29.1774 119.609 28.8545C119.97 28.5317 120.392 28.2856 120.851 28.1311C121.326 27.9545 121.83 27.8653 122.337 27.8681L125.829 27.8671Z" fill="black"/>
<path fill-rule="evenodd" clip-rule="evenodd" d="M64.567 22.3301C66.36 21.1061 67.931 20.6731 68.848 21.2331C70.853 22.4571 69.282 27.9191 65.358 33.4141C61.382 38.9611 56.54 42.4521 54.527 41.2291C53.567 40.6601 53.431 39.1741 53.915 37.2111C52.82 40.4391 52.871 42.9791 54.349 43.8451C56.922 45.3751 62.817 41.3151 67.532 34.7231C72.247 28.1311 73.996 21.5821 71.422 20.0531C69.893 19.1351 67.362 20.0951 64.567 22.3211V22.3301Z" fill="#3427FD"/>
</g>
<defs>
<clipPath id="clip0_28_286">
<rect width="120" height="60" fill="white" transform="translate(10.5)"/>
</clipPath>
</defs>
</svg>
