<svg width="141" height="60" viewBox="0 0 141 60" fill="none" xmlns="http://www.w3.org/2000/svg">
<rect x="0.5" width="140" height="60" rx="10" fill="#F7F8FC"/>
<path d="M76.4828 23.3371C78.1789 24.8886 79.0269 27.0148 79.0269 29.7797C79.0269 32.5445 78.2005 34.7364 76.5468 36.3564C74.8931 37.9763 72.3714 38.7776 68.9792 38.7776H63.01V21.0698H69.1826C72.3541 21.0698 74.7875 21.7837 76.4836 23.3353L76.4828 23.3371ZM73.5691 33.8512C74.5435 32.9356 75.0402 31.6012 75.0402 29.8532C75.0402 28.1052 74.5522 26.7362 73.5691 25.786C72.5861 24.8359 71.0976 24.3495 69.0692 24.3495H66.7934V35.2184H69.3773C71.1911 35.2184 72.5861 34.7555 73.5613 33.8399L73.5691 33.8512ZM93.1002 38.7664H89.5523V37.0738C88.5398 38.3112 87.3629 38.9299 85.9134 38.9299C84.464 38.9299 83.2516 38.5111 82.2685 37.6717C81.2855 36.8323 80.7957 35.7125 80.7957 34.3141C80.7957 32.9157 81.3149 31.8894 82.3231 31.1936C83.3312 30.4979 84.7322 30.1734 86.4975 30.1734H89.3013V30.0557C89.3013 28.5976 88.5528 27.8681 87.0098 27.8681C86.3478 27.8681 85.6599 27.9996 84.9217 28.2618C84.1836 28.524 83.5666 28.8503 83.0578 29.2414L81.3573 26.7725C83.1547 25.4745 85.2082 24.8134 87.5152 24.8134C89.1767 24.8134 90.499 25.2287 91.5521 26.0595C92.6052 26.8902 93.0942 28.2056 93.0942 30.002L93.1002 38.7664ZM89.3082 33.5137V32.9529H86.9372C85.4115 32.9529 84.6483 33.3856 84.6483 34.3271C84.6483 34.8186 84.8214 35.1708 85.1935 35.4348C85.5656 35.6987 86.0796 35.8155 86.7511 35.8155C87.4226 35.8155 88.0163 35.6009 88.5337 35.1855C89.0512 34.7702 89.2987 34.2077 89.2987 33.5128L89.3082 33.5137ZM103.161 28.4011C102.025 28.4011 101.125 28.8035 100.565 29.6083C100.005 30.4131 99.6735 31.4775 99.6735 32.7998V38.7664H95.8815V25.1154H99.6735V26.8487C100.179 26.2897 100.869 25.8146 101.606 25.4243C102.342 25.034 103.213 24.8307 103.971 24.8134V28.402L103.161 28.4011ZM110.039 27.8958V33.9187C110.039 34.4448 110.195 34.8558 110.465 35.1518C110.587 35.2918 110.736 35.4041 110.905 35.481C111.073 35.5579 111.256 35.5976 111.441 35.5975C112.155 35.5975 112.761 35.2755 113.252 34.6308L114.68 37.3013C113.492 38.3874 112.243 38.9282 110.929 38.9282C109.616 38.9282 108.508 38.4955 107.602 37.6302C106.696 36.7648 106.247 35.5879 106.247 34.0943V21.0698H110.04V24.8618H114.081L112.004 27.8958H110.048H110.039Z" fill="#231F20"/>
<path d="M31.0799 22.1742L28.8585 19.9502L28.8672 36.0069L28.8931 36.7563C28.9035 37.1025 28.9797 37.5092 29.0783 37.9211L46.6771 44.1274L51.0757 42.1786L51.0792 42.1726L31.0894 22.1724L31.0799 22.1742Z" fill="#00C4B3"/>
<path d="M29.0716 37.9224H29.0733C29.0714 37.9147 29.0688 37.9072 29.0656 37.8999C29.069 37.9086 29.069 37.9155 29.0716 37.9224ZM51.069 42.18L46.6704 44.1287L29.0733 37.9224C29.4091 39.2204 30.155 40.6656 30.9538 41.4565L36.6954 47.1679L49.4681 47.1852L51.069 42.1834V42.18Z" fill="#22D3C5"/>
<path d="M28.9108 19.9508L22.0684 30.2857C21.5008 30.8932 21.7829 32.1445 22.6984 33.067L26.6488 37.0494L29.1323 37.9147C29.025 37.5028 28.9575 37.1048 28.9472 36.75L28.9195 36.0006L28.9108 19.9438V19.9508Z" fill="#0075C9"/>
<path d="M46.816 20.1576C46.4032 20.0537 46.006 19.9871 45.6495 19.9845L44.856 19.9551L28.8521 19.9585L51.0779 42.1809L53.0301 37.778L46.8169 20.1645L46.816 20.1576Z" fill="#0075C9"/>
<path d="M46.795 20.1543C46.802 20.1569 46.8098 20.1586 46.8158 20.1604V20.1586C46.8089 20.1569 46.802 20.1569 46.795 20.1543ZM50.3473 22.0434C49.5391 21.2299 48.1087 20.4909 46.8167 20.1595L53.0299 37.7695L51.076 42.1725L55.8354 40.6494L55.8458 27.5825L50.3387 22.0512L50.3473 22.0434Z" fill="#00A8E1"/>
<path d="M45.9442 17.6905L41.9636 13.7384C41.0428 12.8271 39.8002 12.5424 39.1841 13.1093L28.8517 19.9508L44.8556 19.9473L45.6491 19.9767C46.0065 19.9871 46.402 20.0529 46.8156 20.1498L45.9442 17.6835V17.6905Z" fill="#00C4B3"/>
</svg>
