<svg width="140" height="60" viewBox="0 0 140 60" fill="none" xmlns="http://www.w3.org/2000/svg">
<rect width="140" height="60" rx="10" fill="#F7F8FC"/>
<path d="M70.3958 23.3139C70.3616 23.395 70.3292 23.4997 70.299 23.6261L70.2769 23.7247C70.2695 23.7591 70.2625 23.7946 70.2557 23.8315L70.2355 23.9457L70.216 24.0676L70.1978 24.1965L70.1806 24.3326L70.1644 24.4754L70.1495 24.6251L70.1425 24.7021L70.1293 24.8611L70.1175 25.0263L70.1068 25.1973L70.1021 25.2851L71.1578 25.7979C71.1417 25.1792 71.1616 24.5944 71.2172 24.0569L71.2281 23.9612L71.2207 24.0489L71.2111 24.1939L71.2076 24.2632L71.2019 24.4211L71.1997 24.51L71.1973 24.7076L71.1977 24.8735L71.2003 25.0549L71.2032 25.1842L71.21 25.3917L71.2163 25.5387L71.224 25.6929L71.2284 25.7727C71.425 25.6119 71.6606 25.4005 71.9054 25.1696L72.0697 25.013C72.0973 24.9866 72.1249 24.96 72.1524 24.9332L72.3173 24.7717L72.4801 24.6095L72.6388 24.4485L72.7916 24.2907C72.6228 23.9444 72.4406 23.6898 72.2713 23.5038L72.2153 23.4445C72.1783 23.4065 72.142 23.3717 72.1071 23.3401L72.0552 23.2947L72.0051 23.2537C71.9886 23.2408 71.9727 23.2284 71.9571 23.2167L71.9111 23.1839L71.8678 23.1545L71.8078 23.1172L71.7544 23.0873L71.6948 23.0577L71.6503 23.0385L71.5689 23.0089L71.5095 22.9897L71.4519 22.9735L71.4077 22.9624L71.3598 22.9513C71.3514 22.9495 71.343 22.9478 71.3346 22.9461L71.2818 22.9369L71.2266 22.9288C70.9345 22.8924 70.5574 22.931 70.3958 23.3139Z" fill="url(#paint0_linear_28_302)"/>
<path d="M71.4337 28.9254C71.3858 28.5791 71.3413 28.2323 71.3003 27.885C71.2682 27.6061 71.241 27.3267 71.2189 27.0468L71.2002 26.7992C71.1998 26.7929 71.1997 26.7866 71.1998 26.7802C71.1766 26.4529 71.1608 26.125 71.1525 25.7969L70.0988 25.2871L70.096 25.3518L70.0889 25.4864C70.0784 25.7397 70.0707 26.0088 70.0684 26.2918C70.0659 26.6108 70.0688 26.9435 70.0747 27.2919C70.0821 27.6124 70.0951 27.9467 70.1124 28.2866C70.1253 28.505 70.1393 28.725 70.1553 28.9477L70.1746 29.2052L71.5841 29.922L71.5344 29.5882L71.4337 28.9254Z" fill="url(#paint1_linear_28_302)"/>
<path d="M73.4724 37.1404L73.4941 37.2159L73.634 37.6932C73.6543 37.761 73.6745 37.8292 73.6953 37.8977L73.7621 38.1148L73.7849 38.1929C73.789 38.2057 73.7934 38.2182 73.7982 38.231L74.0253 38.9614C74.2265 38.9196 74.4714 38.9948 74.7304 39.1082L74.8347 39.1555C74.6441 38.9253 74.3801 38.7713 74.0649 38.7356C74.9281 38.1578 75.496 37.4136 75.4163 36.5256C75.4079 36.4444 75.3963 36.3635 75.3814 36.2832C75.3685 36.6106 75.2384 36.8509 74.8611 37.1077L74.8145 37.1385C75.2047 36.4493 75.3122 35.9816 75.266 35.3772C75.2546 35.2337 75.2369 35.0816 75.2106 34.918C75.0858 35.8179 74.6041 36.4005 73.8996 36.7452L73.4724 37.1404Z" fill="url(#paint2_linear_28_302)"/>
<path d="M72.9674 36.0836L72.8775 35.7463L72.6972 35.0636C72.6113 34.7312 72.528 34.3981 72.4472 34.0644C72.3656 33.7263 72.2856 33.3879 72.2072 33.049C72.1272 32.7025 72.0512 32.3551 71.979 32.0068L71.9076 31.6623L71.7703 30.9729C71.7458 30.8487 71.7229 30.7241 71.7016 30.5992C71.6626 30.386 71.6252 30.1726 71.5894 29.9588L71.5816 29.9241L70.1803 29.2061L70.1847 29.2508C70.1853 29.2585 70.1856 29.2663 70.1853 29.2738C70.2136 29.5925 70.241 29.9159 70.2786 30.2411C70.3154 30.5712 70.3572 30.9022 70.4061 31.2367C70.4475 31.5186 70.4921 31.7984 70.5386 32.0813L70.5692 32.2506C70.6918 32.9283 70.8496 33.599 71.042 34.2601C71.1029 34.4651 71.1628 34.6624 71.2239 34.8495L71.2781 35.0071L71.3904 35.3207C71.5234 35.6823 71.6711 36.0383 71.8331 36.3879L73.2495 37.1083C73.174 36.8467 73.1043 36.5811 73.0275 36.3116L72.9883 36.1607L72.9674 36.0836Z" fill="url(#paint3_linear_28_302)"/>
<path d="M71.854 36.4349C72.0224 36.7989 72.2102 37.1536 72.4164 37.4974L72.5305 37.6825C72.3962 37.6282 72.2265 37.6012 72.0616 37.5892L71.9797 37.5844C71.9663 37.5838 71.9528 37.5832 71.9394 37.5827L71.8608 37.5811L71.7502 37.5814L71.6512 37.5844L71.568 37.5887L71.4517 37.5983C71.4505 37.5984 71.4504 37.5986 71.4504 37.5986C72.1665 37.848 72.7947 38.1532 73.1909 38.6161C73.0334 38.7901 72.7387 38.9223 72.3682 39.03C72.6439 39.0601 72.8541 39.0478 73.0058 39.023L73.067 39.0118C73.0768 39.0099 73.086 39.0077 73.0952 39.0057L73.146 38.9931L73.19 38.9802L73.2434 38.9615L73.2706 38.9502C73.0431 39.1405 72.9007 39.4651 72.7823 39.8288L72.7415 39.9586L72.7216 40.0244C73.0229 39.5301 73.322 39.2028 73.6129 39.0775C73.9382 40.1596 74.3142 41.3112 74.7268 42.5128L74.9197 43.0708C74.9848 43.258 75.0509 43.4464 75.1177 43.6357C75.2136 43.5114 75.2245 43.374 75.1842 43.2339L75.0522 42.8597L74.9018 42.4226L74.669 41.7292L74.4783 41.1479L74.2674 40.4917L74.0661 39.8517L73.8813 39.2519L73.7453 38.8028L73.6348 38.4319C73.6199 38.3833 73.6063 38.3338 73.5918 38.2836L73.5502 38.146L73.4305 37.7316L73.3091 37.3055L73.2546 37.1089L73.2524 37.1062L71.8358 36.3857C71.8391 36.3983 71.8426 36.4085 71.8468 36.419L71.854 36.4349Z" fill="url(#paint4_linear_28_302)"/>
<path d="M71.7491 29.9524L71.7742 30.0902C71.7926 30.184 71.8091 30.2786 71.8272 30.3739L71.9805 31.1631L72.0368 31.4379L72.1187 31.8262L72.161 32.0244C72.2034 32.2212 72.2479 32.4208 72.2947 32.6248L72.3909 33.0386L72.4866 33.4422L72.5363 33.648L72.6394 34.0656L72.7421 34.4716C72.7944 34.6767 72.8481 34.8854 72.9048 35.0978C72.9462 35.2549 72.9893 35.4143 73.0333 35.5755L73.1805 36.1138L73.2918 36.5095L73.4069 36.9137C73.4264 36.9816 73.4459 37.05 73.4658 37.1183C73.4671 37.1263 73.4685 37.1342 73.4728 37.1399L73.8999 36.7448L73.8896 36.7493L73.8668 36.7603C74.3741 36.2797 74.8086 35.3166 74.908 34.4485C74.9536 34.0486 74.9494 33.623 74.8947 33.1588C74.8552 32.8128 74.785 32.4493 74.6886 32.0558C74.5981 31.6914 74.4933 31.3307 74.3742 30.9747C74.2958 31.1352 74.1845 31.2931 74.0479 31.4472L73.9739 31.5285L73.9485 31.5551L73.895 31.6092C74.269 31.0255 74.3135 30.3989 74.2023 29.7483C74.1344 29.9411 74.001 30.2271 73.7796 30.484C73.7512 30.5182 73.7179 30.5518 73.6846 30.5853C73.6787 30.5895 73.6739 30.5951 73.668 30.6008L73.6577 30.6095C73.7818 30.402 73.8734 30.2049 73.9323 30.0054C73.9415 29.9777 73.9489 29.9495 73.9552 29.9214L73.9644 29.8789C73.9795 29.8142 73.9894 29.7488 73.9993 29.6835L74.0137 29.5569C74.0192 29.4825 74.0209 29.406 74.0174 29.3282L74.0074 29.1853C74.0065 29.1747 74.0051 29.1641 74.0034 29.1537L73.9887 29.062C73.9862 29.0476 73.9834 29.0332 73.9804 29.0188C73.9546 28.8657 73.9234 28.7136 73.8869 28.5627L73.8561 28.4421L73.8283 28.3403L73.7921 28.2197L73.7452 28.0786C73.7404 28.0648 73.7355 28.0512 73.7302 28.0376L73.7017 27.9665C73.6927 27.9445 73.6841 27.9245 73.6758 27.9064L73.6524 27.8584C73.6477 27.8776 73.6417 27.8965 73.6344 27.9149L73.6215 27.9436C73.5331 28.1516 73.3279 28.4368 73.1407 28.637C73.1378 28.6392 73.135 28.6413 73.1343 28.6462L73.0956 28.685C73.0889 28.6921 73.0824 28.6995 73.0761 28.707L73.0835 28.6926L71.7372 29.9301C71.7486 29.9393 71.7501 29.9474 71.7491 29.9524Z" fill="url(#paint5_linear_28_302)"/>
<path d="M71.2283 25.7726C71.2338 25.8713 71.2401 25.974 71.2476 26.0811L71.264 26.3002C71.2669 26.3375 71.2699 26.3754 71.2732 26.4138L71.2931 26.649L71.3041 26.7703L71.3072 26.8095C71.3079 26.8157 71.309 26.8219 71.3105 26.828C71.322 26.9486 71.3345 27.0725 71.3486 27.2005L71.3785 27.4615C71.3891 27.5502 71.4004 27.6409 71.4121 27.7336L71.4681 28.1581C71.4944 28.3508 71.5227 28.5507 71.5544 28.7589L71.5789 28.9166C71.603 29.0773 71.6299 29.2419 71.6582 29.4107L71.7469 29.9315L73.0934 28.694C73.3741 28.1836 73.4354 27.8661 73.4317 27.4715C73.4302 27.3921 73.4266 27.3093 73.4214 27.2247L73.4157 27.1394C73.3931 26.7819 73.3525 26.4258 73.294 26.0724C73.2388 25.7292 73.1711 25.3995 73.0936 25.1172C73.0503 24.9532 72.9988 24.7914 72.9394 24.6325C72.8936 24.5185 72.8441 24.4061 72.7908 24.2954L72.6381 24.4519C72.6123 24.4783 72.5858 24.5047 72.5595 24.5313L72.3986 24.6924L72.2347 24.8538L72.0696 25.0136L71.9871 25.0923L71.824 25.2458C71.6309 25.4274 71.4322 25.603 71.2283 25.7723V25.7726Z" fill="url(#paint6_linear_28_302)"/>
<path d="M63.0661 23.907C63.8135 23.988 64.47 24.1401 65.0357 24.3632C65.6214 24.5862 66.0962 24.8902 66.4597 25.2756C66.8437 25.6404 67.0962 26.117 67.2173 26.7049C67.278 27.0494 67.278 27.4449 67.2173 27.8909C67.1544 28.3501 67.0735 28.8066 66.9749 29.2595L65.6115 36.0413C65.5507 36.4265 65.48 36.822 65.3992 37.2273C65.3184 37.6126 65.2881 37.9674 65.3083 38.2918C65.3083 38.3528 65.2982 38.4235 65.2781 38.5046V38.6871C65.2781 38.9103 65.2579 39.1332 65.2174 39.3562C65.1769 39.5793 65.0457 39.7312 64.8235 39.8124C64.6798 39.8738 64.5251 39.9048 64.3689 39.9037H61.7026C61.5408 39.8834 61.4197 39.8328 61.3389 39.7515C61.2201 39.6736 61.1338 39.5546 61.0965 39.4171C61.0561 39.2548 60.9854 39.1231 60.8843 39.0218C60.8417 38.9798 60.7898 38.9485 60.7329 38.9304C60.6924 38.8898 60.6217 38.8798 60.5208 38.9001C60.4045 38.9384 60.2928 38.9894 60.1875 39.0521C60.0863 39.1131 59.9854 39.1637 59.8844 39.2042C59.7633 39.2854 59.6319 39.3562 59.4905 39.417C59.3694 39.4779 59.238 39.5387 59.0967 39.5995C58.8114 39.722 58.5177 39.8237 58.2178 39.9037C57.9149 39.9645 57.612 40.0354 57.3088 40.1165C57.1472 40.1571 56.9958 40.1775 56.8542 40.1775C56.7331 40.1978 56.6019 40.2179 56.4604 40.2382H56.2787C56.218 40.2585 56.1574 40.2685 56.0969 40.2685H55.7635C55.5412 40.3092 55.3393 40.3092 55.1575 40.2685H54.8847C54.7468 40.2285 54.604 40.208 54.4605 40.2077C54.3387 40.2279 54.2138 40.2175 54.097 40.1773L53.5515 40.0557C53.3698 40.0354 53.208 39.9848 53.0667 39.9037C52.5213 39.6806 52.0769 39.3968 51.7334 39.0521C51.39 38.6871 51.1577 38.2107 51.0366 37.6227C50.9947 37.4732 50.9643 37.3207 50.9457 37.1665C50.9457 37.0043 50.9356 36.8321 50.9153 36.6496C50.8951 36.5492 50.8951 36.4458 50.9153 36.3454C50.9558 36.244 50.9761 36.1428 50.9761 36.0413C50.9761 35.9804 50.986 35.8588 51.0063 35.6763C51.0467 35.4737 51.087 35.3316 51.1274 35.2505C51.2083 35.0479 51.2588 34.8756 51.279 34.7337L51.582 34.0646C51.7032 33.8212 51.8345 33.6084 51.9758 33.4259C52.4203 32.8379 52.895 32.392 53.4 32.0877C53.905 31.7837 54.5313 31.5201 55.2788 31.2971C55.5537 31.1977 55.838 31.1263 56.1272 31.0841C56.4215 31.0416 56.7144 30.9909 57.0059 30.9321C57.1675 30.8915 57.339 30.8712 57.521 30.8712C57.7229 30.8508 57.9149 30.8205 58.0967 30.7801C58.2344 30.7398 58.379 30.7294 58.521 30.7496C58.6623 30.7496 58.8239 30.7293 59.0058 30.6887C59.1437 30.6487 59.2864 30.6283 59.43 30.6281C59.5713 30.6281 59.7228 30.6077 59.8846 30.5671C60.3289 30.4659 60.7331 30.3848 61.0965 30.3238C61.4803 30.2427 61.8438 30.0602 62.1874 29.7765C62.3893 29.594 62.5509 29.3912 62.6722 29.1682C62.6924 29.1072 62.7026 29.0566 62.7026 29.0162C62.7026 28.9755 62.7125 28.9349 62.7327 28.8944C62.7732 28.8538 62.7935 28.7932 62.7935 28.7121C62.8137 28.6308 62.8338 28.5701 62.854 28.5296V28.0734C62.773 27.4651 62.4298 27.0494 61.8237 26.8265C61.6621 26.7655 61.4501 26.7251 61.1875 26.7049C60.9371 26.664 60.6827 26.6538 60.4299 26.6745C60.1673 26.6745 59.9046 26.6948 59.6422 26.7354C59.3996 26.7759 59.1876 26.8265 59.0058 26.8873C58.8658 26.9272 58.7329 26.9887 58.6119 27.0698C58.4906 27.1307 58.3695 27.2017 58.2482 27.2827C58.1269 27.3638 57.9957 27.4752 57.8543 27.6171C57.7128 27.7591 57.612 27.8909 57.5512 28.0124C57.4202 28.1987 57.2989 28.3916 57.1877 28.5904C57.0865 28.7729 56.915 28.8944 56.6724 28.9554C56.511 28.996 56.3393 29.0162 56.1574 29.0162H54.4605C54.3596 29.0162 54.2485 29.0263 54.1274 29.0467C54.0261 29.0467 53.9455 29.0365 53.8848 29.0162H53.6122C53.5717 28.9959 53.5213 28.9857 53.4605 28.9857C53.4 28.9857 53.3496 28.9654 53.3091 28.9249C53.1677 28.8843 53.0869 28.7526 53.0667 28.5296C53.0667 28.428 53.0869 28.3268 53.1274 28.2254C53.1677 28.1242 53.208 28.0329 53.2485 27.9518C53.3414 27.7451 53.4424 27.5421 53.5515 27.3435C53.6633 27.1549 53.7847 26.9721 53.9151 26.796L54.1575 26.492L54.3999 26.1879C54.602 25.9648 54.8444 25.752 55.1271 25.5491C55.1878 25.5288 55.2585 25.4782 55.3393 25.3971C55.4422 25.3289 55.5432 25.258 55.6423 25.1843C55.7433 25.1233 55.8545 25.0626 55.9756 25.0018C56.348 24.7837 56.7447 24.6102 57.1574 24.4848C57.5816 24.3429 58.0058 24.211 58.43 24.0895C58.6892 24.0291 58.9525 23.9884 59.2178 23.9677C59.4804 23.9474 59.7532 23.9069 60.0361 23.8462C60.1169 23.8259 60.238 23.8259 60.3996 23.8462C60.5612 23.8665 60.6723 23.8563 60.7329 23.8157C61.5611 23.7954 62.3389 23.8259 63.0661 23.907ZM96.7534 24.1502C97.4401 24.3935 98.0363 24.7179 98.5411 25.1233C98.707 25.249 98.8594 25.3917 98.9957 25.5491C99.1573 25.6912 99.2885 25.8432 99.3896 26.0054C99.4301 26.1068 99.5007 26.1879 99.6016 26.2487C99.7231 26.4724 99.8246 26.7065 99.9047 26.9482C100.006 27.1712 100.117 27.4045 100.238 27.6476C100.299 27.8301 100.339 28.0226 100.359 28.2254C100.4 28.4079 100.44 28.6107 100.48 28.8337C100.521 29.0973 100.541 29.371 100.541 29.6548L100.602 30.5063C100.602 30.6685 100.571 30.851 100.511 31.0538C100.47 31.2362 100.46 31.4085 100.48 31.5707L100.42 31.9052C100.42 32.0674 100.379 32.2499 100.299 32.4527C100.218 32.6554 100.117 32.7871 99.9956 32.8481C99.8944 32.9293 99.7431 32.9899 99.541 33.0306C99.3391 33.0509 99.1168 33.0712 98.8744 33.0915H98.1774C97.976 33.0722 97.7739 33.0621 97.5715 33.061H89.7539C89.6326 33.061 89.5214 33.0814 89.4206 33.1218C89.2387 33.2029 89.1174 33.284 89.0569 33.3651C89.0164 33.4057 88.9558 33.4866 88.875 33.6084C88.8143 33.7098 88.7841 33.8112 88.7841 33.9124C88.8044 34.0342 88.8044 34.1557 88.7841 34.2774C88.7841 34.3788 88.7942 34.4902 88.8145 34.612C88.8752 35.0985 88.9862 35.5042 89.1476 35.8284C89.3296 36.1326 89.5921 36.4064 89.9355 36.6496C90.0723 36.7488 90.2266 36.821 90.3901 36.8624C90.572 36.8828 90.7435 36.9234 90.9053 36.9842C91.0669 37.0248 91.2789 37.0551 91.5415 37.0752C91.8244 37.0956 92.0769 37.0854 92.2991 37.0449H92.5719C92.7738 37.0043 92.9657 36.9637 93.1476 36.9232L93.6929 36.7407C93.9152 36.6395 94.1677 36.5076 94.4504 36.3454C94.7333 36.1832 94.9555 36.021 95.1171 35.8588C95.2381 35.7171 95.3697 35.585 95.5109 35.4635C95.6525 35.3215 95.8039 35.2203 95.9655 35.1593C96.1877 35.0581 96.4503 35.0174 96.7533 35.0377H97.9956C98.1371 35.0174 98.2582 35.0276 98.3593 35.0682H98.6624C98.8441 35.1087 98.9753 35.1593 99.0563 35.2203C99.117 35.2609 99.1371 35.352 99.117 35.4938C99.117 35.6359 99.0866 35.7574 99.0259 35.8588C98.8643 36.1428 98.6928 36.3962 98.5107 36.6192C98.3412 36.8519 98.1592 37.0753 97.9654 37.2882C97.3998 37.9573 96.7938 38.4945 96.1474 38.9001C95.501 39.3056 94.7232 39.6501 93.8142 39.934C93.5718 40.0153 93.3393 40.0659 93.1172 40.086C92.895 40.1063 92.6526 40.147 92.39 40.2077C92.309 40.2281 92.2183 40.2281 92.1173 40.2077C92.0365 40.2077 91.9557 40.2179 91.8749 40.2382H91.5417C91.4248 40.2784 91.2998 40.2888 91.1779 40.2685C91.0661 40.2694 90.9545 40.2593 90.8447 40.2382C90.683 40.2179 90.5416 40.2179 90.4205 40.2382C90.2992 40.2585 90.168 40.2484 90.0266 40.2077C89.9204 40.1662 89.8072 40.1455 89.6931 40.1468C89.572 40.1468 89.471 40.1267 89.3902 40.086C89.1659 40.045 88.9435 39.9943 88.7236 39.934C88.5304 39.8969 88.3455 39.8248 88.1781 39.7212C87.9883 39.6446 87.7963 39.5735 87.6023 39.5082C87.432 39.4336 87.2696 39.342 87.1176 39.2346C86.552 38.8292 86.0672 38.3627 85.6632 37.8355C85.2793 37.2882 84.9966 36.6596 84.8147 35.9501C84.7548 35.7311 84.7143 35.5072 84.6935 35.281C84.6935 35.0377 84.6633 34.7945 84.6025 34.5512V34.3382C84.6228 34.2571 84.6329 34.176 84.6329 34.0949C84.6127 33.8318 84.6127 33.5675 84.6329 33.3043L84.7542 32.4527C84.7752 32.3425 84.7853 32.2305 84.7844 32.1182C84.8046 31.9965 84.835 31.8851 84.8753 31.7837L84.9662 31.4187L85.2086 30.6888C85.3452 30.3564 85.4765 30.0218 85.6025 29.6852C85.7212 29.3657 85.8736 29.0598 86.0571 28.7727C87.3498 26.6643 89.1276 25.1741 91.3901 24.3024C91.6818 24.1837 91.9872 24.1019 92.2991 24.059C92.602 23.998 92.9252 23.9273 93.2687 23.8462C93.4303 23.8259 93.5819 23.8157 93.7233 23.8157C93.8646 23.8157 94.0161 23.8055 94.1779 23.7852C95.208 23.7649 96.0666 23.8868 96.7534 24.1502ZM33.9998 18.2199C34.3432 18.2199 34.5856 18.2908 34.7269 18.4327C34.8482 18.5343 34.9189 18.6861 34.9392 18.889C34.9594 19.0715 34.9896 19.254 35.0299 19.4363C35.0704 19.7609 35.1109 20.0954 35.1512 20.4399C35.2119 20.7645 35.2623 21.099 35.3026 21.4435C35.5268 22.7348 35.7088 24.0331 35.8482 25.3363C36.0089 26.6485 36.2009 27.9565 36.4239 29.2595C36.5047 29.6649 36.5652 30.0805 36.6057 30.5063C36.646 30.9321 36.7066 31.3477 36.7874 31.7532L36.8481 32.0574C36.8684 32.1587 36.9188 32.2398 36.9996 32.3007C37.0401 32.321 37.0703 32.3414 37.0905 32.3615C37.131 32.3818 37.1814 32.3717 37.242 32.331C37.4036 32.2904 37.5348 32.1688 37.6358 31.9662C37.7282 31.779 37.8293 31.5963 37.9388 31.4187C38.175 30.9646 38.4074 30.5084 38.6358 30.0503C38.8622 29.5757 39.1047 29.1091 39.363 28.6512L41.3023 24.941C41.9689 23.684 42.6256 22.427 43.2718 21.1699C43.4293 20.8535 43.591 20.5392 43.7567 20.2271C43.9363 19.907 44.108 19.5825 44.2717 19.254C44.3549 19.0875 44.4459 18.9251 44.5445 18.7672C44.6455 18.6051 44.7869 18.4733 44.9687 18.3719C45.1101 18.2705 45.2717 18.2199 45.4535 18.2199H50.6654C50.8673 18.2199 51.0088 18.2606 51.0896 18.3416C51.2915 18.4632 51.3523 18.6963 51.2713 19.041C51.2107 19.3654 51.1502 19.6999 51.0896 20.0446L50.1804 24.6065L47.908 35.9196L47.3928 38.5656C47.352 38.7907 47.3014 39.0139 47.2413 39.2346C47.1806 39.4373 47.0798 39.5893 46.9382 39.6909C46.7951 39.7929 46.6281 39.8557 46.4534 39.8732H43.5749C43.4454 39.8354 43.3139 39.8049 43.181 39.782C43.0798 39.7616 42.9992 39.6907 42.9385 39.5692C42.8779 39.4676 42.8577 39.3359 42.8779 39.1739C42.9184 39.0115 42.9589 38.8391 42.9992 38.6566L43.3021 37.1057L44.8778 29.2899C44.9183 29.006 44.9588 28.7424 44.9991 28.4993C45.0593 28.2377 45.1098 27.9739 45.1506 27.7085L45.2717 27.2218C45.3121 27.0395 45.3324 26.8671 45.3324 26.7049C45.3122 26.5535 45.3122 26.4001 45.3324 26.2487C45.3729 26.0865 45.3425 25.9851 45.2415 25.9446C45.1807 25.9243 45.1303 25.9345 45.09 25.9749L44.9991 26.0662C44.8931 26.1528 44.801 26.2555 44.7263 26.3704L44.5445 26.6745C44.3583 26.9862 44.1765 27.3005 43.9991 27.6173C43.8328 27.9501 43.6507 28.2749 43.4536 28.5904L43.2718 28.9554C43.2277 29.0846 43.1666 29.2073 43.0901 29.3202C42.931 29.5793 42.7794 29.843 42.6355 30.1108C42.5099 30.3827 42.3682 30.6467 42.2113 30.9016C42.1708 30.9626 42.1406 31.0335 42.1204 31.1146C42.1001 31.1756 42.0699 31.2362 42.0295 31.2971C41.9066 31.4826 41.7953 31.6756 41.6963 31.8749C41.6153 32.0776 41.5044 32.2804 41.3628 32.483C41.2399 32.6686 41.1287 32.8616 41.0297 33.061C40.945 33.2715 40.8436 33.4749 40.7266 33.6691C40.366 34.2516 40.0324 34.8503 39.7266 35.4635C39.4214 36.0557 39.1082 36.6437 38.7872 37.2274C38.7267 37.2882 38.6864 37.349 38.6661 37.4099C38.6661 37.4707 38.6358 37.5315 38.5752 37.5923C38.432 37.8185 38.3006 38.052 38.1814 38.2918C38.0759 38.5231 37.9543 38.7467 37.8177 38.9609C37.7414 39.0954 37.6606 39.2272 37.5753 39.3562C37.5006 39.4711 37.4085 39.5737 37.3025 39.6604C37.1814 39.7415 37.0703 39.7921 36.9694 39.8124C36.8682 39.8124 36.7369 39.8328 36.5753 39.8732H35.8784C35.737 39.8732 35.5653 39.8834 35.3632 39.9037H34.7875C34.6058 39.9037 34.4341 39.8935 34.2725 39.8732C34.1107 39.8529 33.9998 39.8123 33.9392 39.7515C33.7977 39.6503 33.7068 39.5387 33.6665 39.4171C33.6462 39.2751 33.6057 39.1129 33.5452 38.9304C33.5049 38.6885 33.4746 38.445 33.4542 38.2006C33.4352 37.9442 33.3947 37.6898 33.3331 37.4402L33.3028 37.1665C33.2412 36.917 33.2007 36.6627 33.1817 36.4064C33.1641 36.1397 33.1235 35.8751 33.0604 35.6156V35.4635C33.0604 35.4026 33.0503 35.3418 33.03 35.281C32.9695 35.0985 32.9292 34.906 32.9089 34.7032C32.8885 34.4991 32.8582 34.2961 32.818 34.0949V33.9429C32.818 33.8819 32.8079 33.8313 32.7876 33.7909C32.7474 33.5897 32.7171 33.3866 32.6967 33.1824C32.6967 32.9796 32.6665 32.7769 32.606 32.5741C32.525 32.1686 32.4543 31.7429 32.3938 31.2969C32.3544 30.8583 32.2937 30.4218 32.2119 29.9891C32.13 29.4737 32.0593 28.9566 31.9999 28.4382C31.9617 27.9232 31.8703 27.4136 31.7271 26.9176C31.6866 26.6336 31.6261 26.4005 31.5453 26.218C31.51 26.1813 31.4692 26.1505 31.4242 26.1268C31.4039 26.0861 31.3634 26.0861 31.3029 26.1268C31.1818 26.1877 31.101 26.2889 31.0605 26.431C31.039 26.5777 30.9983 26.7208 30.9394 26.8568C30.859 26.9972 30.8075 27.1523 30.7877 27.313C30.7675 27.4549 30.7473 27.6067 30.7272 27.7691C30.6863 27.9942 30.6358 28.2175 30.5757 28.4382C30.5349 28.6633 30.4843 28.8865 30.4242 29.1072L28.8182 37.1968L28.5153 38.6869L28.394 39.1735C28.3738 39.3357 28.3132 39.4676 28.2122 39.5688C28.1111 39.7108 27.9396 39.8021 27.697 39.8426C27.5557 39.8832 27.4042 39.9035 27.2424 39.9035C27.0817 39.8833 26.9198 39.8731 26.7578 39.873H24.5759C24.3941 39.8527 24.2527 39.7919 24.1517 39.6905C24.0506 39.5891 24.0103 39.4371 24.0304 39.2343L24.1517 38.5654L24.6668 35.8891L26.9395 24.5758L27.7879 20.318C27.8082 20.1964 27.8282 20.0546 27.8485 19.8924C27.889 19.7099 27.9293 19.5377 27.9696 19.3753C28.0101 19.2132 28.0506 19.0611 28.0909 18.9191C28.1514 18.7571 28.2019 18.6354 28.2423 18.5543C28.3635 18.4124 28.5453 18.311 28.7877 18.2502C28.8484 18.2299 28.8889 18.2299 28.909 18.2502C28.9495 18.2502 28.9999 18.24 29.0604 18.2197H33.9996L33.9998 18.2199ZM116.395 24.3327C117.142 24.7179 117.668 25.2855 117.971 26.0359C118.072 26.2588 118.132 26.5021 118.153 26.7655C118.193 27.009 118.223 27.2624 118.244 27.526C118.264 27.6882 118.264 27.8401 118.244 27.9823C118.223 28.1234 118.223 28.2667 118.244 28.4079C118.203 28.5296 118.193 28.6107 118.213 28.6512C118.191 28.9474 118.151 29.242 118.092 29.5332C118.031 29.8373 117.971 30.1313 117.91 30.4151L117.395 33.1218L116.395 38.0483C116.316 38.4239 116.236 38.799 116.153 39.1737C116.072 39.5184 115.88 39.7415 115.577 39.8427C115.456 39.8834 115.314 39.9037 115.153 39.9037H113.032C112.789 39.9037 112.577 39.8935 112.395 39.8732C112.214 39.8326 112.082 39.7415 112.002 39.5995C111.941 39.4779 111.921 39.3259 111.941 39.1432C111.981 38.9406 112.022 38.7276 112.062 38.5046L112.486 36.3759L113.395 31.8446C113.537 31.0943 113.638 30.4049 113.698 29.7765C113.779 29.1278 113.708 28.5802 113.486 28.1343C113.284 27.7287 112.931 27.4449 112.426 27.2827C112.32 27.2412 112.206 27.2205 112.092 27.2218C111.991 27.2218 111.89 27.2015 111.789 27.161C111.688 27.1407 111.557 27.1407 111.395 27.161C111.254 27.161 111.143 27.1712 111.062 27.1915C110.961 27.2118 110.88 27.2218 110.82 27.2218C110.759 27.2218 110.698 27.2319 110.638 27.2523C110.153 27.374 109.749 27.5362 109.426 27.7388C108.678 28.2052 108.153 28.8843 107.85 29.7763C107.567 30.6685 107.315 31.6721 107.093 32.7873L106.335 36.5889L105.972 38.4438L105.85 38.9914C105.81 39.1737 105.749 39.3257 105.669 39.4476C105.527 39.6704 105.335 39.8023 105.093 39.8429C104.871 39.8834 104.598 39.9037 104.275 39.9037H102.76C102.537 39.9037 102.315 39.8935 102.093 39.8732C101.871 39.8529 101.729 39.782 101.669 39.6604C101.548 39.4779 101.527 39.2143 101.608 38.8696C101.684 38.5465 101.755 38.222 101.82 37.8965L102.638 33.7606L103.972 27.0699L104.305 25.5188C104.345 25.2957 104.386 25.0931 104.426 24.9105C104.464 24.7323 104.56 24.5717 104.699 24.4543C104.739 24.3935 104.81 24.3531 104.911 24.3327C105.009 24.2931 105.11 24.2625 105.214 24.2415H105.365C105.465 24.2213 105.567 24.2111 105.669 24.211H107.274C107.436 24.211 107.588 24.2212 107.729 24.2415C107.891 24.2415 108.032 24.2618 108.153 24.3024C108.274 24.3632 108.345 24.4543 108.365 24.576C108.406 24.6977 108.426 24.8396 108.426 25.0018C108.426 25.0829 108.416 25.1538 108.396 25.2146C108.375 25.2756 108.375 25.3363 108.396 25.3971C108.416 25.4985 108.436 25.5593 108.456 25.5796C108.497 25.5999 108.547 25.6302 108.608 25.6709C108.81 25.6912 109.002 25.6201 109.183 25.4579C109.365 25.2756 109.547 25.1335 109.729 25.0323C110.354 24.6275 111.025 24.3006 111.729 24.059C111.931 23.998 112.123 23.9576 112.304 23.9374C112.528 23.9143 112.75 23.8838 112.971 23.8462C113.032 23.8259 113.123 23.8259 113.244 23.8462C113.365 23.8462 113.446 23.836 113.486 23.8157C114.698 23.7751 115.668 23.9476 116.395 24.3327ZM61.3995 32.6048C61.3187 32.6251 61.248 32.6454 61.1875 32.6657C61.1267 32.6657 61.0459 32.6757 60.9451 32.696C60.8035 32.7367 60.6521 32.767 60.4905 32.7873C60.3174 32.8096 60.1455 32.84 59.9753 32.8785C59.9148 32.8989 59.8238 32.9088 59.7027 32.9088C59.4199 32.9698 59.1471 33.0104 58.8845 33.0306C58.6218 33.0509 58.3594 33.1015 58.0967 33.1826L57.6119 33.3043C57.4704 33.3246 57.3291 33.3651 57.1877 33.4259C56.723 33.6084 56.3089 33.8821 55.9454 34.247C55.5817 34.612 55.3697 35.1188 55.3089 35.7676C55.2887 36.1123 55.3494 36.3962 55.4908 36.6192C55.5718 36.8421 55.7433 37.0246 56.0059 37.1665C56.2686 37.2882 56.5614 37.3795 56.8846 37.4402C57.2078 37.5012 57.5512 37.5215 57.9149 37.5012C58.2842 37.4635 58.6493 37.3922 59.0058 37.2882C59.5713 37.126 60.0361 36.8726 60.3996 36.5279C60.7835 36.1629 61.1067 35.717 61.3693 35.1898C61.4299 35.0479 61.4803 34.9059 61.5208 34.764C61.5613 34.6018 61.6216 34.4396 61.7026 34.2774L61.7632 34.0037C61.8037 33.9023 61.8338 33.7909 61.8541 33.6693C61.8743 33.5271 61.8843 33.4055 61.8843 33.3043C61.8843 33.1826 61.8944 33.071 61.9146 32.9698C61.9349 32.8682 61.9045 32.7873 61.8237 32.7265C61.7429 32.6452 61.6016 32.6048 61.3995 32.6048ZM93.5718 26.9785C93.5111 27.0191 93.4404 27.0293 93.3596 27.009C93.2788 26.9887 93.2081 26.9887 93.1476 27.009C93.0263 27.0496 92.9052 27.0799 92.7839 27.1002C92.6628 27.1002 92.5516 27.1206 92.4508 27.1612C91.5011 27.4449 90.7336 28.0024 90.1477 28.8337C90.087 28.915 90.0163 29.0263 89.9355 29.1682C89.8549 29.2897 89.7936 29.4231 89.7539 29.5635C89.7141 29.6811 89.6936 29.8044 89.6931 29.9285C89.6931 30.0503 89.7438 30.1515 89.8446 30.2326C89.9862 30.3342 90.1982 30.3848 90.4811 30.3848H95.5413C95.8645 30.3645 96.0868 30.2732 96.2079 30.111C96.3898 29.9082 96.4503 29.6649 96.3898 29.3812C96.3493 29.077 96.3191 28.854 96.2988 28.7121C96.117 28.1646 95.824 27.749 95.4202 27.4653C95.016 27.161 94.4 26.9988 93.5718 26.9785Z" fill="black"/>
<path d="M84.1906 23.5796C84.1475 23.5974 84.1004 23.6199 84.05 23.6467L83.9714 23.6903C83.9173 23.7215 83.8595 23.757 83.7984 23.7967L83.7045 23.8595L83.6061 23.9282L83.5028 24.0032L83.3951 24.0841L83.3396 24.1268L83.2255 24.2164L83.1077 24.3117L82.9856 24.4125L82.8601 24.5189L82.7309 24.6305L82.5984 24.7474L82.4628 24.8694L82.3939 24.9322L82.8377 26.187C83.318 25.6727 83.8002 25.2148 84.2736 24.8247L84.4402 24.6891L84.4521 24.6798L84.3377 24.7733L84.2254 24.8708L84.1036 24.9813L83.9882 25.0899L83.8912 25.1836L83.8214 25.2521L83.6705 25.4039L83.5472 25.5312L83.3694 25.7193L83.2748 25.8214L83.1765 25.9291L83.0219 26.1009L82.9144 26.2228C83.0248 26.2333 83.1459 26.2426 83.2748 26.2503L83.4736 26.2609L83.6823 26.2695L83.8985 26.2764L84.1203 26.2812L84.3456 26.2841L84.4588 26.2851L84.6851 26.2854C84.7231 26.2854 84.7606 26.2851 84.7982 26.2849L85.0212 26.2827C85.058 26.2823 85.0948 26.2817 85.1311 26.281L85.3464 26.2764C85.5229 25.7481 85.5632 25.3232 85.5496 25.006L85.5448 24.9257L85.538 24.8503L85.5338 24.8143L85.5244 24.7463L85.5135 24.6833C85.5117 24.6734 85.5098 24.6635 85.5078 24.6536L85.4957 24.598L85.483 24.5472L85.4701 24.5016L85.4574 24.4609L85.4337 24.3946L85.4143 24.3486L85.3685 24.2537L85.3418 24.2031L85.3194 24.1632L85.2936 24.1196L85.2642 24.0726L85.231 24.0235L85.195 23.9727C84.9925 23.699 84.6465 23.3908 84.1906 23.5796Z" fill="url(#paint7_linear_28_302)"/>
<path d="M80.5843 28.925C80.8241 28.6023 81.0628 28.2877 81.3002 27.981C81.5478 27.6637 81.7972 27.3587 82.0497 27.0626C82.0648 27.0441 82.0797 27.0258 82.094 27.0116C82.3345 26.7295 82.5814 26.453 82.8345 26.1822L82.39 24.9316L82.3362 24.9815L82.224 25.0842C82.0025 25.2912 81.7844 25.5019 81.57 25.7163C81.4427 25.8436 81.3138 25.975 81.183 26.1098L80.918 26.385L80.7832 26.5263C80.5271 26.7998 80.2748 27.0768 80.0262 27.3572C79.8621 27.5449 79.6992 27.7337 79.5376 27.9236L79.3491 28.1464L79.9164 29.8473L80.1407 29.5388L80.5843 28.925Z" fill="url(#paint8_linear_28_302)"/>
<path d="M75.7225 37.1636L75.6382 37.3201L75.4151 37.7377C75.3775 37.8083 75.34 37.8794 75.3025 37.9511L75.1847 38.179C75.162 38.2212 75.1401 38.259 75.1215 38.3015L74.9975 38.5418L74.7262 39.0705C74.9471 39.214 75.0945 39.5238 75.224 39.8722C75.2528 39.5349 75.1622 39.2006 74.9367 38.9203C76.0889 39.1437 77.1356 38.9974 77.774 38.2189C77.8294 38.1487 77.8854 38.0749 77.9378 37.9962C77.6675 38.25 77.3715 38.3394 76.8621 38.2439L76.8045 38.2324C77.6642 37.9886 78.1208 37.698 78.5623 37.1745C78.6741 37.0409 78.7804 36.9029 78.8811 36.7607C78.0682 37.3857 77.2191 37.4706 76.3793 37.1863L75.7225 37.1636Z" fill="url(#paint9_linear_28_302)"/>
<path d="M76.1077 35.9886L76.347 35.5669L76.7423 34.8735C76.9363 34.5374 77.1328 34.2028 77.3318 33.8697C77.5339 33.5325 77.7375 33.1962 77.9427 32.8609C78.1526 32.5183 78.3664 32.178 78.5839 31.8401C78.7969 31.5052 79.0179 31.1715 79.2342 30.8412C79.3133 30.7211 79.3917 30.6051 79.4747 30.4858C79.6109 30.2835 79.7512 30.082 79.8914 29.8804L79.9128 29.8464L79.3529 28.1509L79.3212 28.1904C79.3157 28.1971 79.3096 28.2035 79.3032 28.2094C79.0739 28.4884 78.8399 28.771 78.6128 29.0625C78.3809 29.3577 78.1527 29.6573 77.9272 29.9658C77.7375 30.2257 77.5518 30.4865 77.3653 30.7512L77.2558 30.9119C76.8181 31.5552 76.4142 32.2211 76.0457 32.9067C75.9362 33.1118 75.8295 33.3183 75.7255 33.5263C75.6434 33.6953 75.5648 33.869 75.4868 34.0385C75.3074 34.4356 75.1444 34.8399 74.9979 35.2503L75.5681 36.9599L75.6789 36.7569L75.9058 36.3487C75.9439 36.2803 75.9819 36.2112 76.0198 36.1418L76.1077 35.9886Z" fill="url(#paint10_linear_28_302)"/>
<path d="M74.9772 35.3049C74.8247 35.7324 74.6951 36.1677 74.5889 36.6091L74.5342 36.8488C74.4827 36.73 74.4002 36.6072 74.3073 36.4914L74.2504 36.4229C74.2408 36.4116 74.2311 36.4004 74.2214 36.3892L74.1625 36.3242L74.1036 36.2621L74.0458 36.2034L73.9629 36.1232L73.8875 36.0538L73.8052 35.9812L73.731 35.9199C74.1102 36.6916 74.3741 37.4383 74.3268 38.1269C74.0623 38.1415 73.7202 38.0129 73.3366 37.8042C73.5017 38.0074 73.6534 38.1507 73.7813 38.2512L73.8385 38.2946C73.8477 38.3015 73.8569 38.3079 73.866 38.3142L73.9177 38.3493L73.9655 38.3791L74.0093 38.4042L74.0487 38.4247L74.0835 38.4413L74.1133 38.4542L74.1266 38.4596C73.805 38.4324 73.4489 38.5682 73.0808 38.7552L72.9577 38.8194L72.834 38.8865C73.468 38.7287 73.9677 38.7036 74.3012 38.835C74.1344 39.1522 73.9696 39.4706 73.8069 39.79L73.5573 40.2828C73.1695 41.0561 72.7897 41.8334 72.4182 42.6147L72.1617 43.1558C72.0761 43.3374 71.9901 43.5202 71.9042 43.7042C72.0798 43.6808 72.1972 43.5786 72.276 43.4338L72.5662 42.8157L72.8336 42.2601L73.175 41.5622L73.4769 40.9556L73.7758 40.3626L74.0598 39.8066L74.4536 39.0463L74.7336 38.5143L74.8298 38.3327L74.9126 38.179L74.9881 38.0349L75.1029 37.8219L75.3387 37.3875L75.4594 37.1662L75.571 36.9645L75.5715 36.9604L75.0015 35.251C74.9942 35.2635 74.9888 35.2746 74.984 35.2864L74.9772 35.3049Z" fill="url(#paint11_linear_28_302)"/>
<path d="M80.0244 30.0031L79.9357 30.1342C79.876 30.224 79.8146 30.3138 79.7535 30.4048L79.461 30.8474L79.2523 31.1622L79.1993 31.2438C79.1201 31.3658 79.0404 31.4899 78.96 31.6159L78.7158 31.9997C78.5496 32.2626 78.3856 32.5269 78.2238 32.7925L78.0981 32.9992C77.8913 33.3394 77.6869 33.681 77.4849 34.0241L77.2463 34.4331C77.126 34.64 77.0041 34.8505 76.8814 35.067C76.8087 35.1945 76.7356 35.324 76.662 35.4551L76.2992 36.1046L76.1881 36.3071L75.9622 36.7194C75.8864 36.8585 75.8102 36.9989 75.7336 37.1407C75.7285 37.1481 75.7233 37.1555 75.722 37.1636L76.3789 37.1863C76.3675 37.1806 76.3554 37.179 76.3399 37.1725C77.1287 37.1899 78.2411 36.7609 79.0082 36.1416C79.3616 35.8562 79.6949 35.5102 80.0185 35.0927C80.2605 34.7827 80.4919 34.4342 80.7258 34.0405C80.9414 33.6749 81.1424 33.3009 81.3284 32.9193C81.1382 32.9861 80.9235 33.0246 80.6915 33.0397L80.5677 33.0462C80.5401 33.0475 80.5128 33.0471 80.4843 33.0473L80.4403 33.0478C81.2036 32.8764 81.7353 32.4074 82.1612 31.7952C81.9536 31.8963 81.6197 32.02 81.2382 32.0501C81.1883 32.0551 81.1349 32.0557 81.0816 32.0559C81.0735 32.0548 81.0652 32.0553 81.0558 32.0551L81.0409 32.054C81.305 31.9859 81.5347 31.9005 81.7401 31.7865C81.7695 31.7718 81.7975 31.7548 81.8249 31.7372L81.866 31.7104C81.9293 31.6705 81.9891 31.6258 82.0489 31.5811L82.1604 31.4906C82.2451 31.4167 82.3268 31.334 82.4019 31.2422L82.4498 31.1864C82.4573 31.1772 82.4645 31.1677 82.4715 31.1578L82.5322 31.0722C82.5416 31.0584 82.551 31.0445 82.5598 31.0309C82.6621 30.8844 82.759 30.7342 82.8504 30.5807L82.8841 30.5231C82.9281 30.4473 82.9668 30.379 83.0008 30.3139L83.0408 30.2375L83.1013 30.1144C83.1136 30.089 83.125 30.0646 83.135 30.0415L83.1527 30.0001L83.1827 29.9255C83.1915 29.9026 83.1992 29.8813 83.2057 29.8621L83.2143 29.835C83.1963 29.846 83.1766 29.8569 83.1552 29.8664L83.1219 29.8791C82.8863 29.9761 82.4952 30.0418 82.186 30.054C82.182 30.0533 82.1779 30.0527 82.1733 30.0563L82.1117 30.0566C82.1007 30.057 82.0897 30.0576 82.0787 30.0587L82.096 30.0531L80.0327 29.9755C80.0343 29.9922 80.029 29.9994 80.0244 30.0031Z" fill="url(#paint12_linear_28_302)"/>
<path d="M82.9145 26.2227C82.8409 26.3065 82.7647 26.3944 82.6861 26.4866L82.5256 26.6761L82.3587 26.8762L82.1572 27.1204C82.1528 27.126 82.1488 27.132 82.1452 27.1381C82.0302 27.2798 81.9122 27.4282 81.7905 27.5839L81.605 27.8236L81.5102 27.9481L81.2437 28.3017L81.0696 28.5359C80.9813 28.6553 80.8916 28.7779 80.8 28.9052L80.708 29.0336C80.6154 29.161 80.5224 29.2922 80.4278 29.427L80.2366 29.7012L80.0397 29.9845L82.1032 30.0621C82.7332 29.875 83.0341 29.6683 83.3434 29.3476C83.4052 29.2826 83.4676 29.2131 83.5305 29.1407L83.5935 29.0676C83.8582 28.7617 84.1073 28.4427 84.34 28.1116C84.5673 27.7911 84.774 27.4719 84.935 27.1828C85.03 27.0163 85.1166 26.845 85.1945 26.6697C85.2514 26.5339 85.2989 26.4052 85.3418 26.2799L85.1277 26.2836L84.9076 26.2858L84.6836 26.2866L84.4576 26.2858L84.3446 26.2847L84.1197 26.2814L83.8983 26.2764L83.7895 26.2733L83.5769 26.2655L83.4738 26.2609L83.2751 26.2502C83.146 26.2424 83.0249 26.2332 82.9145 26.2227Z" fill="url(#paint13_linear_28_302)"/>
<defs>
<linearGradient id="paint0_linear_28_302" x1="70.6583" y1="24.7483" x2="74.0825" y2="23.6359" gradientUnits="userSpaceOnUse">
<stop stop-color="#F69923"/>
<stop offset="0.3123" stop-color="#F79A23"/>
<stop offset="0.8383" stop-color="#E97826"/>
</linearGradient>
<linearGradient id="paint1_linear_28_302" x1="70.3884" y1="43.5937" x2="74.6162" y2="26.872" gradientUnits="userSpaceOnUse">
<stop offset="0.3233" stop-color="#9E2064"/>
<stop offset="0.6302" stop-color="#C92037"/>
<stop offset="0.7514" stop-color="#CD2335"/>
<stop offset="1" stop-color="#E97826"/>
</linearGradient>
<linearGradient id="paint2_linear_28_302" x1="74.1537" y1="43.0674" x2="76.9309" y2="29.5898" gradientUnits="userSpaceOnUse">
<stop stop-color="#282662"/>
<stop offset="0.09548" stop-color="#662E8D"/>
<stop offset="0.7882" stop-color="#9F2064"/>
<stop offset="0.9487" stop-color="#CD2032"/>
</linearGradient>
<linearGradient id="paint3_linear_28_302" x1="71.1082" y1="42.6791" x2="77.2514" y2="27.7965" gradientUnits="userSpaceOnUse">
<stop offset="0.3233" stop-color="#9E2064"/>
<stop offset="0.6302" stop-color="#C92037"/>
<stop offset="0.7514" stop-color="#CD2335"/>
<stop offset="1" stop-color="#E97826"/>
</linearGradient>
<linearGradient id="paint4_linear_28_302" x1="72.6344" y1="41.9901" x2="77.5718" y2="35.8609" gradientUnits="userSpaceOnUse">
<stop stop-color="#282662"/>
<stop offset="0.09548" stop-color="#662E8D"/>
<stop offset="0.7882" stop-color="#9F2064"/>
<stop offset="0.9487" stop-color="#CD2032"/>
</linearGradient>
<linearGradient id="paint5_linear_28_302" x1="73.0129" y1="45.2781" x2="77.5328" y2="23.9617" gradientUnits="userSpaceOnUse">
<stop offset="0.3233" stop-color="#9E2064"/>
<stop offset="0.6302" stop-color="#C92037"/>
<stop offset="0.7514" stop-color="#CD2335"/>
<stop offset="1" stop-color="#E97826"/>
</linearGradient>
<linearGradient id="paint6_linear_28_302" x1="71.7197" y1="50.5486" x2="75.9731" y2="25.8762" gradientUnits="userSpaceOnUse">
<stop offset="0.3233" stop-color="#9E2064"/>
<stop offset="0.6302" stop-color="#C92037"/>
<stop offset="0.7514" stop-color="#CD2335"/>
<stop offset="1" stop-color="#E97826"/>
</linearGradient>
<linearGradient id="paint7_linear_28_302" x1="82.9191" y1="25.1884" x2="87.3624" y2="24.0083" gradientUnits="userSpaceOnUse">
<stop stop-color="#F69923"/>
<stop offset="0.3123" stop-color="#F79A23"/>
<stop offset="0.8383" stop-color="#E97826"/>
</linearGradient>
<linearGradient id="paint8_linear_28_302" x1="76.3718" y1="44.3465" x2="85.459" y2="27.7584" gradientUnits="userSpaceOnUse">
<stop offset="0.3233" stop-color="#9E2064"/>
<stop offset="0.6302" stop-color="#C92037"/>
<stop offset="0.7514" stop-color="#CD2335"/>
<stop offset="1" stop-color="#E97826"/>
</linearGradient>
<linearGradient id="paint9_linear_28_302" x1="73.8695" y1="40.7816" x2="77.972" y2="33.9163" gradientUnits="userSpaceOnUse">
<stop stop-color="#282662"/>
<stop offset="0.09548" stop-color="#662E8D"/>
<stop offset="0.7882" stop-color="#9F2064"/>
<stop offset="0.9487" stop-color="#CD2032"/>
</linearGradient>
<linearGradient id="paint10_linear_28_302" x1="75.451" y1="43.1696" x2="84.6643" y2="27.6306" gradientUnits="userSpaceOnUse">
<stop offset="0.3233" stop-color="#9E2064"/>
<stop offset="0.6302" stop-color="#C92037"/>
<stop offset="0.7514" stop-color="#CD2335"/>
<stop offset="1" stop-color="#E97826"/>
</linearGradient>
<linearGradient id="paint11_linear_28_302" x1="73.2628" y1="41.7859" x2="78.3144" y2="34.2978" gradientUnits="userSpaceOnUse">
<stop stop-color="#282662"/>
<stop offset="0.09548" stop-color="#662E8D"/>
<stop offset="0.7882" stop-color="#9F2064"/>
<stop offset="0.9487" stop-color="#CD2032"/>
</linearGradient>
<linearGradient id="paint12_linear_28_302" x1="73.1189" y1="43.1837" x2="83.7384" y2="26.2297" gradientUnits="userSpaceOnUse">
<stop offset="0.3233" stop-color="#9E2064"/>
<stop offset="0.6302" stop-color="#C92037"/>
<stop offset="0.7514" stop-color="#CD2335"/>
<stop offset="1" stop-color="#E97826"/>
</linearGradient>
<linearGradient id="paint13_linear_28_302" x1="73.1546" y1="36.4526" x2="79.9561" y2="25.2838" gradientUnits="userSpaceOnUse">
<stop offset="0.3233" stop-color="#9E2064"/>
<stop offset="0.6302" stop-color="#C92037"/>
<stop offset="0.7514" stop-color="#CD2335"/>
<stop offset="1" stop-color="#E97826"/>
</linearGradient>
</defs>
</svg>
